<?xml version="1.0" encoding="utf-8"?>
<!-- Generator: Adobe Illustrator 27.5.0, SVG Export Plug-In . SVG Version: 6.00 Build 0)  -->
<svg version="1.1" xmlns="http://www.w3.org/2000/svg" xmlns:xlink="http://www.w3.org/1999/xlink" x="0px" y="0px"
	 viewBox="0 0 1052.764 500" style="enable-background:new 0 0 1052.764 500;" xml:space="preserve">
<g id="BACKGROUND">
</g>
<g id="OBJECTS">
	<g>
		<ellipse style="fill:#EBF3F9;" cx="746.312" cy="455.466" rx="26.759" ry="2.44"/>
		<path style="fill:#E1F1F4;" d="M896.856,169.171c11.376,14.58,17.717,33.183,28.616,48.197
			c9.758,13.441,23.105,23.688,37.938,29.125c9.876,3.62,20.308,5.135,30.186,8.748c9.878,3.613,19.598,9.851,24.458,19.979
			c5.049,10.523,24.409,52.616-17.272,89.235c-14.822,13.023-32.738,19.324-49.611,28.346
			c-28.157,15.057-49.807,42.968-79.051,55.263c-22.297,9.375-47.967,8.583-69.751-2.151
			c-21.785-10.734-39.415-31.278-47.906-55.823c-14.553-42.067,23.317-86.688,15.317-130.265
			c-13.356-72.757,17.906-95.43,32.206-106.159C831.067,131.851,874.319,140.286,896.856,169.171z"/>
		<g>
			<g>
				<g>
					<g>
						<path style="fill:#90AFF1;" d="M828.65,303.112c3.278,2.54,6.122-1.819,6.221-4.965c0.098-3.146-0.448-4.507-1.458-5.372
							c-1.01-0.865-2.852,0.238-2.852,0.238l-0.323,2.436c0,0,1.52-1.767,2.412-0.579c0.892,1.188,0.749,7.007-1.903,6.687
							c0,0-1.186,0.005-1.569-0.511L828.65,303.112z"/>
						<path style="fill:#E08A30;" d="M828.65,303.112c3.278,2.54,6.122-1.819,6.221-4.965c0.098-3.146-0.448-4.507-1.458-5.372
							c-1.01-0.865-2.852,0.238-2.852,0.238l-0.323,2.436c0,0,1.52-1.767,2.412-0.579c0.892,1.188,0.749,7.007-1.903,6.687
							c0,0-1.186,0.005-1.569-0.511L828.65,303.112z"/>
						<path style="fill:#FFB162;" d="M811.058,291.009c0,0,0.06,0.034,0.149,0.08c-0.098-0.046-0.166-0.08-0.166-0.08
							s0.302,11.362,2.905,17.615c0,0,0.654,2.458,5.191,1.99c0,0,3.065,0.028,5.359-0.445c2.294-0.472,3.066-1.255,4.338-6.087
							c1.272-4.832,1.984-10.634,2.009-13.209L811.058,291.009z"/>
					</g>
				</g>
			</g>
		</g>
		<g id="XMLID_4201_">
			<rect id="XMLID_4204_" x="796.803" y="172.684" style="fill:#96CDD7;" width="87.167" height="79.052"/>
			
				<line id="XMLID_4203_" style="fill:none;stroke:#FFFFFF;stroke-width:1.0836;stroke-miterlimit:10;" x1="839.432" y1="172.684" x2="839.432" y2="251.736"/>
			
				<line id="XMLID_4202_" style="fill:none;stroke:#FFFFFF;stroke-width:1.0836;stroke-miterlimit:10;" x1="796.803" y1="212.21" x2="883.969" y2="212.21"/>
		</g>
		<path style="fill:#3C3C3B;" d="M906.894,229.126c1.346,3.05,3.225,6.187,2.654,9.472c-0.326,1.874-1.424,3.514-2.049,5.31
			c-0.843,2.422-0.804,5.052-0.702,7.614c0.098,2.462,0.256,4.975,1.178,7.26c0.922,2.286,2.746,4.342,5.142,4.919
			c2.061,0.496,4.207-0.143,6.229-0.782c7.457-2.354,15.497-4.775,22.939-2.373c4.205,1.357,8.027,4.216,12.444,4.322
			c1.343,0.032,2.758-0.231,3.785-1.096c0.79-0.665,1.277-1.624,1.624-2.597c1.268-3.555,0.881-7.574-0.603-11.044
			c-1.484-3.47-3.998-6.426-6.879-8.864c-2.517-2.13-5.563-4.27-6.03-7.534c-0.182-1.273,0.069-2.562,0.286-3.829
			c1.311-7.658,1.315-15.849-2.092-22.832c-3.408-6.983-10.875-12.373-18.595-11.497c-1.782,0.202-3.511,0.717-5.229,1.229
			c-1.074,0.32-2.148,0.641-3.221,0.961c-2.916,0.87-5.926,1.766-8.48,3.475c-2.793,1.87-3.557,4.865-4.269,8.04
			C903.547,215.87,904.165,222.939,906.894,229.126z"/>
		<rect x="784.588" y="320.04" style="fill:#62B5C3;" width="9.637" height="134.956"/>
		<rect x="972.472" y="320.04" style="fill:#62B5C3;" width="9.637" height="134.956"/>
		<g>
			<path style="fill:#FFDC75;" d="M905.054,333.877c0.84-37.102,5.808-66.393,5.808-66.393c3.8-21.963,21.007-19.628,27.408-19.546
				c1.773,0.023,4.597,0.685,6.265,1.286c28.342,10.225,13.478,97.254,13.478,97.254L905.054,333.877z"/>
			<g>
				<path style="fill:#D6AD4A;" d="M954.803,354.852c0.263,3.325,0.452,6.652,0.679,9.978l0.557,9.983
					c0.368,6.655,0.612,13.315,0.924,19.973c0.232,6.66,0.477,13.32,0.654,19.983l0.221,9.995c0.027,3.334,0.099,6.665,0.089,10.001
					c-0.001,0.516-0.421,0.934-0.938,0.932c-0.489-0.001-0.89-0.382-0.929-0.861c-0.264-3.325-0.446-6.652-0.672-9.978l-0.541-9.983
					c-0.331-6.657-0.594-13.316-0.869-19.975c-0.196-6.662-0.459-13.321-0.599-19.985l-0.204-9.996
					c-0.027-3.334-0.092-6.666-0.082-10.001c0.001-0.473,0.386-0.855,0.859-0.854C954.4,354.064,954.767,354.413,954.803,354.852z"
					/>
			</g>
			<g>
				<path style="fill:#D6AD4A;" d="M912.87,356.686c0.201,3.251,0.328,6.504,0.493,9.756l0.371,9.758
					c0.244,6.506,0.363,13.014,0.551,19.521c0.108,6.508,0.228,13.017,0.281,19.526l0.034,9.765
					c-0.035,3.256-0.026,6.511-0.098,9.768c-0.011,0.516-0.439,0.926-0.955,0.914c-0.489-0.011-0.882-0.398-0.913-0.877
					c-0.201-3.251-0.322-6.504-0.486-9.756l-0.354-9.759c-0.207-6.506-0.345-13.014-0.496-19.522
					c-0.071-6.509-0.21-13.017-0.226-19.527l-0.017-9.766c0.036-3.256,0.033-6.511,0.104-9.768c0.01-0.473,0.402-0.848,0.875-0.837
					C912.482,355.893,912.842,356.248,912.87,356.686z"/>
			</g>
			<g>
				<path style="fill:#D6AD4A;" d="M934.18,356.703c0.137,2.625,0.198,5.249,0.299,7.874l0.177,7.874
					c0.114,5.249,0.104,10.498,0.163,15.747c0.008,5.249-0.01,10.498-0.108,15.748l-0.16,7.874c-0.1,2.625-0.155,5.249-0.292,7.874
					c-0.027,0.516-0.467,0.913-0.983,0.886c-0.482-0.025-0.859-0.415-0.885-0.886c-0.137-2.624-0.192-5.249-0.292-7.874l-0.16-7.874
					c-0.098-5.249-0.115-10.498-0.108-15.748c0.058-5.249,0.048-10.498,0.163-15.747l0.177-7.874
					c0.101-2.625,0.162-5.249,0.299-7.874c0.024-0.473,0.428-0.836,0.9-0.811C933.81,355.915,934.156,356.272,934.18,356.703z"/>
			</g>
			<g>
				<path style="fill:#D6AD4A;" d="M884.513,348.616c-0.273,3.475-0.621,6.941-0.93,10.412l-1.052,10.398
					c-0.705,6.931-1.533,13.848-2.293,20.773c-0.839,6.915-1.667,13.832-2.561,20.741l-1.386,10.358
					c-0.508,3.447-0.972,6.9-1.517,10.343c-0.081,0.51-0.559,0.858-1.069,0.777c-0.484-0.077-0.822-0.516-0.786-0.997
					c0.273-3.475,0.627-6.941,0.937-10.411l1.068-10.396c0.742-6.927,1.55-13.846,2.347-20.767
					c0.876-6.911,1.685-13.83,2.616-20.735l1.403-10.356c0.509-3.447,0.979-6.899,1.524-10.342c0.074-0.467,0.513-0.786,0.98-0.712
					C884.237,347.773,884.547,348.176,884.513,348.616z"/>
			</g>
			<ellipse style="fill:#FFDC75;" cx="919.731" cy="348.883" rx="38.622" ry="18.046"/>
			<path style="opacity:0.88;fill:#EDEEED;" d="M881.703,352.053c3.207,8.455,19.012,14.876,38.028,14.876
				c21.33,0,38.622-8.079,38.622-18.046c0-0.815-0.116-1.618-0.34-2.404c0,0-5.272,11.199-35.544,12.321
				C892.158,359.923,881.703,352.053,881.703,352.053z"/>
		</g>
		<g>
			<g>
				<path style="fill:#FFB162;" d="M911.536,249.805c-8.622,6.787-15.657,15.576-20.392,25.475
					c4.246,2.835,8.332,5.897,12.578,8.732c2.18-1.097,2.969-3.758,3.54-6.131c1.399-5.812,2.8-11.638,3.551-17.568
					C911.235,256.977,911.53,253.167,911.536,249.805z"/>
				<path style="fill:#3C3C3B;" d="M926.272,431.028c0.092-0.592,0.558-1.07,1.171-1.177c2.044-0.359,6.61-0.263,8.831,6.896
					c0,0,3.5,10.285,3.093,15.042c-0.113,1.318-1.935,1.727-2.687,0.618c-1.745-2.573-5.435-7.889-10.942-15.193
					c-0.225-0.299-0.324-0.675-0.267-1.04L926.272,431.028z"/>
				<path style="fill:#F7C5B4;" d="M926.038,437.647l9.76,13.468C935.798,451.115,934.179,439.348,926.038,437.647z"/>
				<path style="fill:#3C3C3B;" d="M919.773,430.314c3.851,2.495,6.716,4.648,7.009,5.689c0.969,3.439,1.185,15.062,1.185,15.062
					s0.108,4.166-2.262,3.921c-2.37-0.245-9.478-18.133-9.478-18.133L919.773,430.314z"/>
				<path style="fill:#F7C5B4;" d="M916.227,437.835l2.589-4.801c0,0,6.631,7.914,4.252,18.741
					C923.068,451.774,916.824,441.003,916.227,437.835z"/>
				<path style="fill:#656DAE;" d="M942.688,309.578l-24.604-1.46c-29.922,14.795-48.942,37.053-55.264,50.358
					c-7.025,14.786-1.757,21.492-1.757,21.492l0.045-0.039c-0.8,11.902,12.497,22.197,18.622,25.614
					c6.241,3.483,45.725,31.643,45.725,31.643l4.052-7.383c-7.02-22.18-38.361-50.792-38.361-50.792
					c18.411-10.619,44.24-15.79,55.972-31.484C959.228,331.328,942.688,309.578,942.688,309.578z"/>
				<g>
					<path style="fill:#3C3C3B;" d="M861.159,379.251c0.243-1.889,1.035-3.663,1.915-5.337c0.881-1.685,1.888-3.302,2.959-4.872
						c2.159-3.13,4.541-6.098,7.016-8.98c4.966-5.754,10.381-11.105,16.027-16.187c5.682-5.042,11.643-9.783,17.96-14.013
						c6.339-4.14,13.055-7.989,20.452-9.822c-3.661,1.006-7.128,2.585-10.457,4.374c-3.339,1.778-6.551,3.788-9.672,5.926
						c-6.221,4.309-12.16,9.026-17.784,14.094c-5.668,5.017-11.055,10.357-16.093,16.006c-2.518,2.825-4.938,5.742-7.149,8.811
						c-1.115,1.527-2.167,3.103-3.097,4.749C862.305,375.639,861.463,377.372,861.159,379.251z"/>
				</g>
				<path style="fill:#656DAE;" d="M921.119,430.383c-12.229-7.968-31.67-18.455-31.67-18.455s23.51,24.976,26.778,27.525
					L921.119,430.383z"/>
				<path style="fill:#FFB162;" d="M930.104,247.222c0,0,17.053,1.869,22.659,13.315c2.918,5.958,4.381,17.234,4.289,27.138
					c-3.815,0.004-14.045,0.003-14.045,0.003c-0.341-5.297,0.573,7.961,0.573,7.961c1.722,14.291,2.597,18.823,2.597,18.823
					c-1.744-0.574-3.439-0.696-5.269-0.839c-2.374-0.185-4.713-0.341-7.054,0.096c-5.247,0.979-10.604,2.086-15.928,2.48
					c-1.595,0.118-9.509,0.25-11.027-2.144c0,0-1.282-18.001-4.573-33.838c-1.216-5.852,0.978-20.219,3.803-24.992
					c4.302-7.268,12.061-8.005,12.061-8.005"/>
				<path style="opacity:0.76;fill:#D0E4F1;" d="M911.024,315.888c2.75,0.459,5.95,0.384,6.902,0.313
					c5.324-0.394,10.68-1.501,15.928-2.48c2.341-0.437,4.68-0.281,7.054-0.096c1.83,0.143,3.525,0.265,5.269,0.839
					c0,0-0.875-4.532-2.597-18.823c0,0-0.277-4.017-0.469-6.746c-3.709,4.363-2.958,11.294-5.948,16.178
					c-2.011,3.286-5.565,5.295-9.117,6.786C922.638,314.128,916.87,315.422,911.024,315.888z"/>
				<g>
					<path style="fill:#3C3C3B;" d="M909.557,251.137c-1.044,1.03-1.978,2.153-2.751,3.378c-0.798,1.211-1.351,2.541-1.799,3.927
						c-0.237,0.686-0.456,1.381-0.654,2.08c-0.199,0.69-0.313,1.425-0.499,2.129c-0.336,1.423-0.68,2.845-1.079,4.258
						c0.195-1.455,0.445-2.899,0.704-4.343c0.23-1.445,0.588-2.886,1.055-4.283c0.489-1.382,1.067-2.787,1.954-3.981
						C907.346,253.093,908.377,252.011,909.557,251.137z"/>
				</g>
				<path style="fill:#F7C5B4;" d="M919.702,239.09l-0.699,8.031c-2.992,0.215-4.852,1.216-4.852,1.216
					c9.086,6.565,22.992,0.487,22.992,0.487c-2.611-1.109-5.083-1.345-5.083-1.345l-0.137-7.858L919.702,239.09z"/>
				<g>
					<path style="fill:#3C3C3B;" d="M879.731,405.544c4.052,2.262,7.895,4.871,11.76,7.427c3.856,2.574,7.656,5.228,11.471,7.862
						c3.781,2.682,7.571,5.35,11.321,8.073c3.75,2.725,7.489,5.465,11.173,8.281c-3.865-2.562-7.686-5.185-11.506-7.81
						l-11.418-7.931l-11.366-8.002l-5.687-3.994C883.581,408.122,881.69,406.784,879.731,405.544z"/>
				</g>
				<g>
					<path style="fill:#3C3C3B;" d="M941.791,272.758c0.396,2.47,0.644,4.955,0.857,7.442c0.194,2.489,0.352,4.98,0.358,7.478
						c-0.398-2.476-0.646-4.957-0.857-7.442C941.957,277.75,941.8,275.262,941.791,272.758z"/>
				</g>
				<path style="fill:#F7C5B4;" d="M922.614,305.855c7.098,1.749,14.959,1.639,22.156,0.357c4.966,0.279,7.961-1.769,7.961-1.769
					c2.8-1.568,4.204-9.526,4.289-18.648l-14.045,0.004c0.161,2.493,0.253,4.581,0.179,5.329c0.264,0.492-0.013,1.227-0.471,1.546
					c-5.665,3.957-12.69,5.313-19.485,6.574c-1.643-0.061-3.873-0.296-5.515-0.357c-2.007-0.074-4.173-0.104-5.822,1.043
					c-0.813,0.565-1.45,1.423-1.613,2.4s0.203,2.057,1.011,2.628c0.934,0.66,2.183,0.543,3.321,0.668
					c1.4,0.154,2.734,0.711,4.137,0.831C920.076,306.578,921.283,306.152,922.614,305.855z"/>
			</g>
			<g>
				<path style="fill:#3C3C3B;" d="M914.268,319.93c0.561,0.627,0.916,1.406,1.135,2.21c0.202,0.809,0.272,1.662,0.087,2.483
					c-0.208-0.811-0.362-1.586-0.571-2.357C914.727,321.491,914.484,320.739,914.268,319.93z"/>
			</g>
			<g>
				<path id="XMLID_4200_" style="fill:#F7C5B4;" d="M941.323,208.099c1.182,6.883-0.191,17.25-1.732,22.692
					c-0.626,2.212-1.299,4.499-2.751,6.281c-7.173,8.807-16.551,5.878-19.62,3.805c-2.408-1.627-4.314-3.842-5.4-6.537
					c-2.771-6.878-3.849-14.431-3.112-21.81c0,0,0.636-16.746,18.047-15.336C926.756,197.195,939.349,196.606,941.323,208.099z"/>
				<path id="XMLID_4199_" style="fill:#3C3C3B;" d="M932.021,241.234c0,0-3.418,2.311-8.604,1.737c0,0,3.45,1.641,8.604,0.324
					V241.234z"/>
				<path style="fill:#3C3C3B;" d="M919.918,203.56c0.734,3.23,3.488,5.908,6.738,6.55c1.932,0.382,3.984,0.101,5.844,0.749
					c1.511,0.527,2.797,1.671,3.494,3.112c0.757,1.563,0.817,3.367,1.357,5.017c0.541,1.65,1.883,3.299,3.617,3.22
					c1.8-0.082,2.98-1.951,3.416-3.699c0.558-2.235,0.434-4.586,0.112-6.867c-0.674-4.765-2.345-9.623-5.92-12.845
					c-3.485-3.141-8.447-4.389-13.057-4.226C921.087,194.727,918.989,199.471,919.918,203.56z"/>
				<g id="XMLID_4189_">
					<path id="XMLID_4198_" style="fill:#F7C5B4;" d="M940.309,227.588c0.517,0.659,1.472,0.937,2.264,0.658
						c0.617-0.218,1.09-0.719,1.481-1.243c1.032-1.381,1.684-3.171,1.242-4.836c-0.11-0.413-0.295-0.824-0.624-1.098
						c-0.547-0.456-1.38-0.424-2.019-0.108c-0.639,0.317-1.738,1.544-2.342,2.217V227.588z"/>
					<g id="XMLID_4190_">
						<g id="XMLID_4195_">
							<path style="fill:#DA806C;" d="M943.824,222.583c-0.679,0.34-1.315,0.764-1.819,1.325c-0.538,0.529-0.935,1.18-1.247,1.87
								c-0.025,0.056-0.091,0.081-0.146,0.056c-0.051-0.023-0.076-0.079-0.062-0.13c0.211-0.768,0.664-1.455,1.201-2.04
								c0.569-0.554,1.239-1.028,1.998-1.267c0.054-0.017,0.11,0.013,0.127,0.066C943.891,222.51,943.868,222.562,943.824,222.583z"
								/>
						</g>
						<g id="XMLID_4193_">
							<path style="fill:#DA806C;" d="M941.77,223.996c0.383,0.381,0.617,0.889,0.774,1.405c0.113,0.527,0.153,1.086-0.002,1.606
								c-0.018,0.059-0.08,0.092-0.139,0.075c-0.05-0.015-0.082-0.063-0.079-0.114c0.028-0.502,0.02-1.002-0.122-1.48
								c-0.098-0.489-0.327-0.936-0.591-1.366c-0.03-0.047-0.016-0.11,0.032-0.14C941.685,223.956,941.738,223.964,941.77,223.996z"
								/>
						</g>
					</g>
				</g>
				<g id="XMLID_4183_">
					<path style="fill:#3C3C3B;" d="M923.826,229.169c0.534-0.071,1.038-0.276,1.365-0.683c0.37-0.368,0.534-0.887,0.628-1.421
						c0.012-0.074,0.081-0.125,0.156-0.113c0.062,0.01,0.108,0.063,0.114,0.122c0.053,0.601-0.173,1.227-0.58,1.703
						c-0.437,0.446-1.075,0.721-1.682,0.639c-0.068-0.009-0.116-0.072-0.107-0.14C923.726,229.219,923.771,229.176,923.826,229.169z
						"/>
				</g>
				<path id="XMLID_4182_" style="fill:#E89B8D;" d="M921.16,221.286c-0.425,1.701-0.26,3.46-0.39,5.191
					c-0.006,0.085-0.011,0.175,0.053,0.253c0.137,0.165,0.491,0.19,0.783,0.193c0.441,0.004,0.883,0.008,1.324,0.013
					c0.235,0.002,0.506-0.006,0.637-0.123c0.078-0.07,0.084-0.162,0.087-0.248c0.058-1.681-0.138-3.375-0.583-5.052
					c-0.044-0.166-0.095-0.338-0.255-0.478c-0.231-0.201-0.685-0.293-1.042-0.212C921.775,220.824,921.251,220.924,921.16,221.286z"
					/>
				<path style="fill:#3C3C3B;" d="M922.096,202.822c-0.544,0.821-1.155,1.61-1.918,2.232c-1.24,1.01-2.808,1.525-4.143,2.405
					c-0.859,0.566-1.611,1.277-2.357,1.985c-1.422,1.348-2.855,2.716-3.919,4.362c-1.064,1.645-1.74,3.62-1.482,5.562
					c-0.849-0.847-1.43-1.951-1.744-3.109c-5.193-19.149,13.481-22.486,15.77-20.958
					C924.844,196.998,923.383,200.877,922.096,202.822z"/>
				<g>
					<path id="XMLID_4180_" style="fill:#3C3C3B;" d="M931.334,224.607c-0.094,0.516-0.589,0.857-1.105,0.763
						c-0.516-0.095-0.857-0.589-0.763-1.105c0.094-0.516,0.589-0.858,1.105-0.763C931.087,223.596,931.428,224.091,931.334,224.607z
						"/>
					<path id="XMLID_4170_" style="fill:#3C3C3B;" d="M915.478,224.592c-0.095,0.516-0.589,0.858-1.105,0.763
						c-0.516-0.094-0.857-0.589-0.763-1.105c0.094-0.516,0.589-0.858,1.105-0.763C915.23,223.581,915.572,224.076,915.478,224.592z"
						/>
					<g id="XMLID_4165_">
						<path style="fill:#3C3C3B;" d="M928.158,221.106c1.833-0.829,4.182-0.513,5.718,0.805c0.099,0.085,0.11,0.234,0.025,0.334
							c-0.073,0.085-0.196,0.104-0.291,0.054c-1.642-0.859-3.489-1.147-5.318-0.783c-0.117,0.024-0.232-0.051-0.256-0.168
							C928.014,221.247,928.068,221.148,928.158,221.106z"/>
					</g>
					<g id="XMLID_4162_">
						<path style="fill:#3C3C3B;" d="M917.346,221.713c-1.738-0.676-3.607-0.712-5.373-0.15c-0.124,0.04-0.258-0.027-0.299-0.151
							c-0.035-0.106,0.012-0.222,0.104-0.277c1.74-1.033,4.109-0.937,5.77,0.198c0.099,0.067,0.124,0.202,0.057,0.301
							C917.548,221.719,917.438,221.749,917.346,221.713z"/>
					</g>
				</g>
			</g>
		</g>
		<rect x="776.584" y="309.401" style="fill:#62B5C3;" width="216.712" height="12.876"/>
		<g id="XMLID_4111_">
			
				<ellipse id="XMLID_4140_" transform="matrix(0.9239 -0.3827 0.3827 0.9239 -1.0393 388.9967)" style="fill:#9CA2CB;" cx="977.29" cy="197.111" rx="22.67" ry="22.67"/>
			<g id="XMLID_4131_">
				
					<ellipse id="XMLID_4139_" transform="matrix(0.1602 -0.9871 0.9871 0.1602 626.3713 1130.4327)" style="fill:#656DAE;" cx="977.518" cy="197.111" rx="21.151" ry="21.151"/>
				<g id="XMLID_4132_">
					<path id="XMLID_4138_" style="fill:#FFFFFF;" d="M978.378,197.512c0,0.601-0.487,1.087-1.087,1.087
						c-0.601,0-1.087-0.487-1.087-1.087c0-0.6,0.487-1.087,1.087-1.087C977.891,196.425,978.378,196.912,978.378,197.512z"/>
					<path id="XMLID_4137_" style="fill:#FFFFFF;" d="M976.984,196.425c0,0-0.067-0.493-0.126-1.232
						c-0.056-0.739-0.099-1.725-0.103-2.711c-0.005-0.986,0.027-1.972,0.08-2.711c0.054-0.74,0.121-1.232,0.121-1.232
						c0.025-0.184,0.195-0.314,0.379-0.289c0.153,0.021,0.269,0.142,0.288,0.289c0,0,0.067,0.493,0.121,1.232
						c0.053,0.739,0.084,1.725,0.08,2.711c-0.004,0.986-0.047,1.972-0.103,2.711c-0.059,0.74-0.126,1.232-0.126,1.232
						c-0.023,0.169-0.178,0.287-0.347,0.264C977.108,196.671,977.003,196.559,976.984,196.425z"/>
					<path id="XMLID_4136_" style="fill:#FFFFFF;" d="M978.299,197.985c0,0,0.126,0.081,0.345,0.224
						c0.214,0.149,0.53,0.35,0.891,0.614c0.36,0.264,0.788,0.564,1.233,0.9c0.447,0.335,0.915,0.703,1.382,1.072
						c0.463,0.374,0.926,0.748,1.35,1.111c0.429,0.357,0.811,0.714,1.147,1.007c0.664,0.598,1.084,1.026,1.084,1.026
						c0.13,0.132,0.128,0.345-0.005,0.475c-0.113,0.111-0.286,0.126-0.415,0.044c0,0-0.507-0.319-1.233-0.841
						c-0.359-0.267-0.788-0.564-1.228-0.907c-0.445-0.337-0.909-0.71-1.373-1.083c-0.46-0.378-0.919-0.757-1.341-1.122
						c-0.423-0.364-0.807-0.718-1.142-1.014c-0.334-0.297-0.597-0.563-0.789-0.741c-0.186-0.184-0.292-0.29-0.292-0.29
						c-0.121-0.12-0.121-0.314-0.002-0.435C978.018,197.921,978.18,197.908,978.299,197.985z"/>
					<polygon id="XMLID_4135_" style="fill:#FFFFFF;" points="978.378,188.538 976.203,188.538 977.29,187.095 					"/>
					<polygon id="XMLID_4134_" style="fill:#FFFFFF;" points="984.62,204.952 985.822,203.14 986.424,204.844 					"/>
				</g>
			</g>
			<g id="XMLID_4112_">
				<g id="XMLID_4120_">
					<g>
						<path style="fill:#FFFFFF;" d="M977.259,180.448c0.862,0,0.864-1.34,0-1.34C976.396,179.107,976.395,180.448,977.259,180.448
							L977.259,180.448z"/>
					</g>
				</g>
				<g id="XMLID_4117_">
					<g>
						<path style="fill:#FFFFFF;" d="M995.408,197.803c0.862,0,0.864-1.34,0-1.34C994.546,196.463,994.545,197.803,995.408,197.803
							L995.408,197.803z"/>
					</g>
				</g>
				<g id="XMLID_4115_">
					<g>
						<path style="fill:#FFFFFF;" d="M959.788,197.464c0.862,0,0.864-1.34,0-1.34C958.925,196.124,958.924,197.464,959.788,197.464
							L959.788,197.464z"/>
					</g>
				</g>
				<g id="XMLID_4113_">
					<g>
						<path style="fill:#FFFFFF;" d="M977.768,215.614c0.862,0,0.864-1.34,0-1.34C976.905,214.274,976.904,215.614,977.768,215.614
							L977.768,215.614z"/>
					</g>
				</g>
			</g>
		</g>
		<g id="XMLID_4074_">
			<g id="XMLID_4094_">
				<g id="XMLID_4109_">
					<path style="fill:#91CCA2;" d="M767.332,341.679c2.581,0.43,4.297,3.243,4.356,5.859c0.06,2.616-1.152,5.066-2.157,7.482
						c-1.005,2.416-1.832,5.13-0.999,7.611c0.87,2.587,3.474,4.743,3.036,7.436c-0.336,2.069-2.331,3.364-4,4.633
						c-1.668,1.269-3.313,3.287-2.585,5.252c0.239,0.647,0.711,1.177,1.065,1.77c0.892,1.49,0.999,3.422,0.278,5.001
						c-0.61,1.336-1.731,2.357-2.821,3.34c-3.982,3.585-7.963,7.171-11.945,10.756c-1.964-4.761-3.927-9.522-5.891-14.282
						c-1.174-2.847-2.372-5.895-1.806-8.922c0.566-3.027,3.696-5.775,6.597-4.742c0.768-2.755-0.725-5.561-1.453-8.327
						c-0.728-2.766-0.067-6.555,2.732-7.145c1.182-0.249,2.487,0.173,3.581-0.339c1.747-0.819,1.734-3.231,1.916-5.151
						c0.429-4.538,2.828-9.755,7.228-10.537C764.465,341.375,766.174,341.486,767.332,341.679z"/>
				</g>
				<g id="XMLID_4107_">
					<path style="fill:#3C3C3B;" d="M751.03,411.368c0.115-5.481,0.544-10.955,1.313-16.383c0.737-5.431,1.733-10.828,2.941-16.175
						c1.195-5.351,2.6-10.652,4.138-15.91c1.56-5.251,3.216-10.471,5.11-15.612c0.043-0.116,0.171-0.175,0.287-0.133
						c0.109,0.04,0.168,0.157,0.139,0.267c-1.388,5.3-3.006,10.524-4.531,15.773c-1.547,5.242-3.039,10.499-4.362,15.8
						c-1.308,5.303-2.447,10.652-3.254,16.057c-0.776,5.406-1.296,10.858-1.333,16.322c-0.001,0.124-0.102,0.223-0.225,0.222
						c-0.123-0.001-0.223-0.102-0.222-0.225C751.03,411.37,751.03,411.368,751.03,411.368z"/>
				</g>
				<g id="XMLID_4105_">
					<path style="fill:#3C3C3B;" d="M752.785,391.685c-1.544-1.837-2.84-3.871-3.997-5.973c-1.12-2.122-2.11-4.323-2.783-6.628
						c-0.051-0.175,0.049-0.358,0.224-0.409c0.159-0.046,0.325,0.033,0.392,0.179c0.992,2.15,1.968,4.292,3.094,6.362
						c1.088,2.09,2.317,4.099,3.559,6.117c0.087,0.142,0.043,0.328-0.099,0.415C753.045,391.828,752.879,391.798,752.785,391.685z"
						/>
				</g>
				<g id="XMLID_4102_">
					<path style="fill:#3C3C3B;" d="M753.717,388.167c0.807-0.167,1.592-0.418,2.386-0.695c0.792-0.286,1.611-0.545,2.415-0.82
						c1.629-0.499,3.256-1.007,4.934-1.353c0.179-0.037,0.354,0.078,0.391,0.257c0.032,0.156-0.052,0.309-0.192,0.37
						c-1.572,0.682-3.195,1.201-4.815,1.729c-0.821,0.236-1.624,0.499-2.461,0.714c-0.835,0.216-1.708,0.4-2.599,0.398
						c-0.167,0-0.302-0.136-0.302-0.304C753.474,388.317,753.58,388.195,753.717,388.167z"/>
				</g>
				<g id="XMLID_4100_">
					<path style="fill:#3C3C3B;" d="M757.122,372.42c-1.175-1.457-2.131-3.075-2.987-4.737c-0.817-1.681-1.542-3.417-1.991-5.235
						c-0.044-0.177,0.064-0.357,0.242-0.4c0.156-0.039,0.314,0.042,0.379,0.183c0.772,1.673,1.486,3.353,2.312,4.985
						c0.788,1.651,1.681,3.244,2.548,4.871c0.079,0.147,0.023,0.331-0.124,0.409C757.37,372.566,757.211,372.53,757.122,372.42z"/>
				</g>
				<g id="XMLID_4095_">
					<path style="fill:#3C3C3B;" d="M758.086,368.593c1.7,0.156,3.388,0.204,5.06,0.001c1.677-0.161,3.311-0.571,4.94-1.073
						c0.174-0.055,0.36,0.043,0.414,0.216c0.048,0.152-0.022,0.314-0.156,0.389c-1.559,0.857-3.319,1.315-5.088,1.515
						c-1.774,0.158-3.586,0.058-5.286-0.456c-0.16-0.048-0.251-0.217-0.202-0.377C757.81,368.667,757.946,368.58,758.086,368.593z"
						/>
				</g>
			</g>
			<g id="XMLID_4081_">
				<path id="XMLID_4093_" style="fill:#91CCA2;" d="M725.008,334.735c2.833-1.186,6.295,0.539,7.988,3.101
					c1.694,2.562,2.02,5.753,2.531,8.782c0.51,3.029,1.383,6.243,3.762,8.186c2.48,2.027,6.414,2.543,7.662,5.493
					c0.958,2.266-0.215,4.799-1.08,7.101c-0.865,2.302-1.239,5.335,0.711,6.834c0.642,0.494,1.442,0.726,2.164,1.093
					c1.817,0.923,3.13,2.776,3.399,4.796c0.228,1.708-0.247,3.423-0.718,5.08c-1.716,6.049-3.433,12.099-5.149,18.149
					c-4.925-3.504-9.849-7.008-14.774-10.512c-2.945-2.096-6.039-4.376-7.368-7.738c-1.329-3.361,0.065-8.047,3.593-8.833
					c-0.957-3.217-4.194-5.074-6.645-7.367c-2.451-2.293-4.16-6.471-1.748-8.805c1.019-0.986,2.58-1.381,3.347-2.574
					c1.224-1.904-0.295-4.293-1.314-6.315c-2.408-4.777-3.283-11.46,0.6-14.984C721.969,336.224,723.737,335.267,725.008,334.735z"
					/>
				<g id="XMLID_4091_">
					<path style="fill:#3C3C3B;" d="M752.339,414.163c-3.309-5.518-6.302-11.225-8.929-17.098
						c-2.661-5.857-5.042-11.841-7.182-17.909c-2.155-6.063-4.07-12.208-5.826-18.394c-1.73-6.193-3.345-12.413-4.675-18.704
						c-0.03-0.142,0.061-0.281,0.203-0.311c0.133-0.028,0.264,0.051,0.305,0.178c1.932,6.133,3.587,12.335,5.35,18.503
						c1.738,6.175,3.538,12.331,5.535,18.423c2.012,6.086,4.222,12.113,6.796,17.988c2.606,5.856,5.495,11.599,8.87,17.051
						c0.076,0.123,0.038,0.285-0.085,0.361c-0.123,0.076-0.285,0.038-0.361-0.085C752.34,414.165,752.339,414.164,752.339,414.163z"
						/>
				</g>
				<g id="XMLID_4089_">
					<path style="fill:#3C3C3B;" d="M741.788,393.51c-2.681-0.861-5.24-2.073-7.703-3.439c-1.22-0.705-2.419-1.447-3.576-2.251
						c-1.153-0.809-2.275-1.662-3.329-2.596c-0.16-0.142-0.175-0.386-0.033-0.546c0.129-0.146,0.343-0.17,0.501-0.067
						c1.165,0.758,2.319,1.524,3.493,2.255c1.171,0.736,2.35,1.457,3.555,2.134c2.386,1.397,4.863,2.626,7.357,3.855
						c0.176,0.087,0.248,0.299,0.162,0.475C742.136,393.488,741.953,393.563,741.788,393.51z"/>
				</g>
				<g id="XMLID_4087_">
					<path style="fill:#3C3C3B;" d="M740.517,389.431c0.698-0.67,1.321-1.41,1.936-2.181c0.607-0.78,1.247-1.559,1.887-2.324
						c0.646-0.763,1.297-1.522,1.975-2.258c0.676-0.738,1.357-1.471,2.083-2.167c0.155-0.148,0.4-0.143,0.549,0.012
						c0.129,0.135,0.142,0.339,0.04,0.488c-0.568,0.83-1.181,1.621-1.798,2.408c-0.616,0.789-1.258,1.555-1.906,2.317
						c-0.657,0.757-1.302,1.511-2,2.246c-0.695,0.736-1.447,1.464-2.334,2.019c-0.166,0.104-0.386,0.054-0.49-0.113
						C740.369,389.733,740.398,389.545,740.517,389.431z"/>
				</g>
				<g id="XMLID_4085_">
					<path style="fill:#3C3C3B;" d="M734.064,371.657c-2.072-0.723-4.047-1.709-5.927-2.84c-0.937-0.572-1.853-1.18-2.729-1.842
						c-0.876-0.661-1.729-1.354-2.519-2.117c-0.155-0.147-0.16-0.393-0.013-0.548c0.131-0.137,0.341-0.156,0.494-0.056l2.695,1.782
						c0.902,0.582,1.802,1.165,2.717,1.726c1.822,1.134,3.691,2.184,5.573,3.25c0.171,0.097,0.231,0.313,0.135,0.484
						C734.404,371.649,734.223,371.712,734.064,371.657z"/>
				</g>
				<g id="XMLID_4082_">
					<path style="fill:#3C3C3B;" d="M732.632,367.253c1.792-0.898,3.484-1.928,5.028-3.161c0.775-0.61,1.509-1.271,2.218-1.96
						c0.707-0.691,1.368-1.432,2.021-2.191c0.139-0.163,0.384-0.183,0.547-0.043c0.142,0.122,0.174,0.326,0.087,0.483
						c-0.506,0.912-1.133,1.753-1.823,2.538c-0.689,0.788-1.462,1.501-2.286,2.146c-1.655,1.279-3.533,2.289-5.538,2.848
						c-0.189,0.053-0.385-0.058-0.438-0.247C732.401,367.5,732.483,367.328,732.632,367.253z"/>
				</g>
			</g>
			<path id="XMLID_4075_" style="fill:#FFDC75;" d="M729.547,397.371c18.241,0,19.828,0.078,35.816,0v40.305
				c0,9.825-7.965,17.79-17.79,17.79l0,0c-9.937,0-17.994-8.051-18.002-17.988L729.547,397.371z"/>
		</g>
		<g>
			<rect x="983.122" y="272.866" style="fill:#E1F1F4;" width="19.366" height="6.555"/>
			<rect x="983.122" y="290.785" style="fill:#E1F1F4;" width="19.366" height="6.555"/>
			<rect x="971.796" y="281.825" style="fill:#E1F1F4;" width="19.366" height="6.555"/>
			<rect x="995.262" y="281.825" style="fill:#E1F1F4;" width="19.366" height="6.555"/>
		</g>
		<g>
			<rect x="812.678" y="399.134" style="fill:#E1F1F4;" width="19.366" height="6.555"/>
			<rect x="812.678" y="417.053" style="fill:#E1F1F4;" width="19.366" height="6.555"/>
			<rect x="801.352" y="408.093" style="fill:#E1F1F4;" width="19.366" height="6.555"/>
			<rect x="824.818" y="408.093" style="fill:#E1F1F4;" width="19.366" height="6.555"/>
		</g>
		<g>
			<polygon id="XMLID_4048_" style="fill:#BFDDE9;" points="900.975,267.299 912.886,305.459 942.09,306.234 941.977,310.491 
				857.405,310.491 846.556,267.732 			"/>
			<path id="XMLID_4047_" style="fill:#BFDDE9;" d="M911.536,310.491h-54.131l-10.848-42.759
				C846.556,267.732,857.089,314.303,911.536,310.491z"/>
		</g>
		<g>
			<g>
				<path style="fill:#D6AD4A;" d="M752.491,400.795c1.658,1.524,3.185,3.132,4.727,4.731c1.529,1.611,3.058,3.214,4.485,4.954
					c0.221,0.268,0.182,0.665-0.086,0.885c-0.222,0.182-0.532,0.186-0.757,0.032c-1.876-1.297-3.542-2.849-5.093-4.502
					c-1.538-1.665-2.976-3.429-4.158-5.378c-0.165-0.272-0.078-0.626,0.194-0.792C752.026,400.59,752.307,400.626,752.491,400.795z"
					/>
			</g>
			<g>
				<path style="fill:#D6AD4A;" d="M741.262,400.811c1.752,2.026,3.543,4.011,5.379,5.96c1.843,1.943,3.683,3.893,5.578,5.799
					c1.857,1.943,3.743,3.865,5.586,5.837c1.835,1.979,3.654,3.984,5.346,6.103c0.216,0.269,0.173,0.661-0.096,0.877
					c-0.249,0.2-0.605,0.176-0.828-0.042l-5.748-5.651c-1.91-1.894-3.806-3.808-5.693-5.74c-1.848-1.969-3.715-3.929-5.468-5.999
					c-1.758-2.064-3.453-4.193-4.965-6.454c-0.176-0.262-0.105-0.617,0.157-0.793C740.754,400.547,741.076,400.596,741.262,400.811z
					"/>
			</g>
			<g>
				<path style="fill:#D6AD4A;" d="M733.178,405.021c2.113,2.547,4.207,5.102,6.337,7.625c2.136,2.518,4.257,5.046,6.46,7.504
					c2.163,2.493,4.379,4.938,6.61,7.371c2.223,2.441,4.485,4.847,6.729,7.278c0.234,0.253,0.218,0.647-0.035,0.881
					c-0.237,0.219-0.6,0.217-0.836,0.009c-2.49-2.204-4.872-4.525-7.201-6.898c-2.322-2.38-4.565-4.837-6.766-7.329
					c-2.161-2.527-4.308-5.068-6.341-7.699c-2.039-2.626-4.016-5.3-5.871-8.059c-0.176-0.262-0.107-0.617,0.155-0.793
					C732.664,404.747,732.992,404.799,733.178,405.021z"/>
			</g>
			<g>
				<path style="fill:#D6AD4A;" d="M734.5,422.62l4.869,4.812c1.627,1.596,3.222,3.221,4.875,4.787
					c1.616,1.604,3.264,3.174,4.909,4.751c1.637,1.584,3.295,3.149,4.918,4.759c0.245,0.243,0.247,0.638,0.004,0.883
					c-0.221,0.223-0.569,0.244-0.814,0.063c-1.852-1.366-3.62-2.836-5.357-4.343c-1.729-1.515-3.403-3.092-5.054-4.691
					c-1.614-1.637-3.234-3.269-4.765-4.985c-1.537-1.709-3.034-3.455-4.437-5.278l-0.003-0.004c-0.193-0.25-0.146-0.609,0.104-0.802
					C733.979,422.397,734.3,422.422,734.5,422.62z"/>
			</g>
			<g>
				<path style="fill:#D6AD4A;" d="M734.932,436.427c1.198,1.012,2.357,2.054,3.528,3.081l3.513,3.069l3.526,3.052
					c1.174,1.021,2.365,2.024,3.525,3.08c0.256,0.233,0.275,0.629,0.043,0.885c-0.202,0.222-0.528,0.265-0.778,0.121
					c-1.372-0.797-2.672-1.702-3.945-2.643c-1.276-0.938-2.496-1.949-3.685-2.993c-1.181-1.055-2.338-2.136-3.426-3.287
					c-1.096-1.142-2.155-2.32-3.125-3.575c-0.194-0.251-0.148-0.611,0.103-0.805C734.428,436.243,734.729,436.256,734.932,436.427z"
					/>
			</g>
		</g>
	</g>
	<g>
		<path style="fill:#E1F1F4;" d="M549.878,58.386c25.68-10.358,53.242-16.027,80.925-16.646c18.091-0.405,37.099,1.63,52.111,11.734
			c21.437,14.429,29.841,41.664,34.245,67.127c4.387,25.364,6.266,51.628,0.424,76.697c-5.842,25.069-20.21,48.97-42.415,61.989
			c-11.289,6.619-24.094,10.21-36.926,12.777c-25.696,5.142-52.333,6.423-78.141,1.879c-51.222-9.019-98.327-40.571-150.307-38.793
			c-22.916,0.783-46.021,8.107-68.404,3.13c-28.646-6.37-49.564-31.861-60.576-59.062c-8.953-22.115-12.845-46.662-8.372-70.097
			c4.473-23.435,17.836-45.57,38.046-58.25c16.833-10.561,37.209-14.095,57.078-14.445c28.414-0.501,56.921,5.127,83.012,16.389
			c14.775,6.377,29.892,15.676,45.899,18.591C515.103,74.798,533.123,65.144,549.878,58.386z"/>
		<g>
			<rect x="346.767" y="90.522" style="fill:#62B5C3;" width="32.343" height="37.551"/>
			<rect x="349.577" y="93.784" style="fill:#FFFFFF;" width="26.724" height="31.027"/>
		</g>
		<g>
			<rect x="427.06" y="85.513" style="fill:#62B5C3;" width="41.972" height="27.359"/>
			<rect x="430.691" y="88.839" style="fill:#FFFFFF;" width="34.657" height="20.709"/>
		</g>
		<g>
			<rect x="385.493" y="61.642" style="fill:#62B5C3;" width="32.343" height="37.551"/>
			<rect x="388.415" y="65.035" style="fill:#FFFFFF;" width="26.498" height="30.765"/>
		</g>
		<g>
			<rect x="608.425" y="63.221" style="fill:#E1F1F4;" width="30.835" height="10.438"/>
			<rect x="608.425" y="91.753" style="fill:#E1F1F4;" width="30.835" height="10.438"/>
			<rect x="590.391" y="77.487" style="fill:#E1F1F4;" width="30.835" height="10.437"/>
			<rect x="627.755" y="77.487" style="fill:#E1F1F4;" width="30.835" height="10.437"/>
		</g>
		<ellipse style="fill:#EBF3F9;" cx="505.358" cy="313.321" rx="155.727" ry="12.251"/>
		<g>
			<path style="fill:#8084BC;" d="M378.122,195.66c0,0-6.12-38.011,8.822-47.049c14.941-9.038,104.724-8.341,104.724-8.341
				s123.467,3.621,144.52,8.341c21.053,4.721,9.841,47.049,9.841,47.049s-6.906,37.667-13.183,49.268l-247.052-4.286L378.122,195.66
				z"/>
			<g>
				<path style="fill:#656DAE;" d="M636.181,220.671c-10.286-1.665-20.687-2.873-31.076-3.937l-7.797-0.794l-7.808-0.683
					c-5.202-0.489-10.417-0.836-15.629-1.211c-20.852-1.443-41.743-2.318-62.643-2.698c-10.452-0.052-20.903-0.313-31.356-0.135
					c-5.226,0.055-10.453,0.056-15.679,0.156l-15.675,0.401l-7.839,0.186l-7.833,0.336l-15.668,0.679
					c-2.613,0.083-5.222,0.238-7.831,0.401l-7.828,0.468l-15.659,0.936l-0.134-1.706l15.66-1.204l7.831-0.602
					c2.61-0.207,5.221-0.408,7.836-0.535l15.688-0.827l7.845-0.41l7.851-0.26l15.704-0.491c5.236-0.115,10.474-0.13,15.711-0.199
					c10.474-0.198,20.95,0.007,31.425,0.069c20.945,0.488,41.887,1.347,62.776,3.003c20.888,1.68,41.732,3.869,62.413,7.515
					L636.181,220.671z"/>
			</g>
			<polygon style="fill:#656DAE;" points="631.737,237.7 624.49,291.338 399.693,291.338 391.879,239.471 			"/>
			<path style="fill:#8084BC;" d="M624.49,291.338c0,0,5.722-94.671,31.702-100.247c25.98-5.576,25.347,28.008,12.673,55.256
				l-22.837,44.991H624.49z"/>
			<path style="fill:#8084BC;" d="M399.66,291.338c0,0-5.721-94.671-31.702-100.247c-25.98-5.576-25.347,28.008-12.673,55.256
				l22.837,44.991H399.66z"/>
			<g>
				<path style="fill:#656DAE;" d="M399.66,291.338c-1.186-9.016-2.426-17.999-3.81-26.952c-0.72-4.472-1.414-8.944-2.237-13.393
					c-0.795-4.452-1.63-8.895-2.605-13.305c-0.925-4.419-1.97-8.811-3.16-13.156c-1.147-4.358-2.52-8.646-4.07-12.859
					c-1.603-4.185-3.406-8.316-5.841-12.058c-1.207-1.874-2.598-3.63-4.228-5.149c-1.618-1.529-3.571-2.718-5.752-3.377
					c2.243,0.37,4.417,1.364,6.239,2.791c1.848,1.404,3.428,3.129,4.842,4.955c2.791,3.697,4.915,7.823,6.728,12.036
					c3.602,8.459,5.972,17.333,7.926,26.24c1.882,8.93,3.29,17.942,4.274,26.992C398.956,273.153,399.608,282.238,399.66,291.338z"
					/>
			</g>
			<path style="fill:#3C3C3B;" d="M617.07,291.327c2.55,25.241,7.385,23.201,7.385,23.201c5.206,0,0-23.201,0-23.201"/>
			<g>
				<path style="fill:#8084BC;" d="M618.031,266.743l-26.472,0.801l-26.477,0.576c-17.652,0.354-35.306,0.623-52.962,0.821
					c-17.656,0.146-35.315,0.173-52.975,0.005c-8.83-0.078-17.66-0.26-26.489-0.45l-13.242-0.455l-13.238-0.654l0.068-1.282
					l13.219,0.452l13.229,0.255c8.821,0.116,17.642,0.225,26.466,0.229c17.646,0.064,35.296,0.017,52.945-0.147
					c17.65-0.098,35.3-0.267,52.949-0.521l52.948-0.805L618.031,266.743z"/>
			</g>
			<g>
				<path style="fill:#656DAE;" d="M624.49,291.338c0.052-9.099,0.704-18.185,1.692-27.233c0.983-9.051,2.392-18.062,4.274-26.992
					c1.954-8.907,4.323-17.781,7.926-26.24c1.813-4.214,3.937-8.339,6.729-12.036c1.415-1.826,2.995-3.551,4.842-4.955
					c1.822-1.427,3.996-2.421,6.239-2.791c-2.181,0.658-4.133,1.847-5.752,3.377c-1.631,1.519-3.022,3.275-4.228,5.149
					c-2.435,3.741-4.238,7.873-5.841,12.058c-1.549,4.213-2.922,8.501-4.07,12.859c-1.191,4.344-2.235,8.736-3.16,13.156
					c-0.974,4.409-1.81,8.853-2.605,13.305c-0.823,4.448-1.517,8.921-2.237,13.393C626.917,273.339,625.676,282.322,624.49,291.338z
					"/>
			</g>
			<path style="fill:#3C3C3B;" d="M399.674,291.338c0,0-5.206,23.201,0,23.201c0,0,4.835,2.04,7.385-23.201H399.674z"/>
			<g>
				<g>
					<path style="fill:#656DAE;" d="M671.476,201.657c0.924,0.371,1.583,1.088,2.067,1.884c0.465,0.807,0.76,1.739,0.606,2.725
						c-0.078,0.501-0.549,0.844-1.05,0.766c-0.199-0.031-0.373-0.124-0.506-0.257l-0.044-0.044c-0.62-0.617-0.978-1.233-1.332-1.88
						c-0.334-0.658-0.66-1.303-0.866-2.161l-0.012-0.052c-0.109-0.454,0.171-0.91,0.625-1.018
						C671.142,201.577,671.319,201.594,671.476,201.657z"/>
				</g>
				<g>
					<path style="fill:#656DAE;" d="M671.974,210.332c0.751,0.542,1.188,1.287,1.5,2.067c0.289,0.788,0.442,1.64,0.209,2.535
						c-0.13,0.5-0.641,0.8-1.142,0.67c-0.185-0.048-0.343-0.149-0.461-0.281l-0.024-0.027c-0.576-0.642-0.859-1.307-1.098-2.004
						c-0.215-0.704-0.396-1.412-0.35-2.278l0.002-0.031c0.025-0.475,0.431-0.839,0.905-0.814
						C671.687,210.179,671.844,210.238,671.974,210.332z"/>
				</g>
				<g>
					<path style="fill:#656DAE;" d="M671.46,220.508c0.779,0.554,1.192,1.415,1.376,2.292c0.164,0.881,0.09,1.84-0.451,2.632
						c-0.288,0.422-0.864,0.531-1.286,0.243c-0.145-0.099-0.253-0.232-0.321-0.381l-0.043-0.096
						c-0.326-0.723-0.431-1.314-0.529-1.941c-0.079-0.63-0.161-1.238-0.096-2.038l0.007-0.086c0.038-0.469,0.448-0.819,0.918-0.781
						C671.192,220.365,671.339,220.422,671.46,220.508z"/>
				</g>
				<g>
					<path style="fill:#656DAE;" d="M670.106,228.357c0.825,0.593,1.255,1.546,1.401,2.505c0.129,0.96-0.036,2.002-0.692,2.786
						c-0.323,0.386-0.898,0.438-1.284,0.114c-0.144-0.12-0.241-0.275-0.29-0.443l-0.033-0.112c-0.228-0.776-0.285-1.379-0.351-2.023
						c-0.049-0.646-0.12-1.263-0.083-2.082l0.004-0.1c0.02-0.463,0.412-0.822,0.875-0.802
						C669.823,228.208,669.978,228.265,670.106,228.357z"/>
				</g>
				<g>
					<path style="fill:#656DAE;" d="M667.423,236.143c0.766,0.57,1.173,1.42,1.372,2.29c0.178,0.874,0.139,1.821-0.356,2.641
						c-0.264,0.438-0.833,0.58-1.272,0.315c-0.155-0.093-0.273-0.225-0.349-0.376l-0.04-0.08c-0.364-0.727-0.49-1.345-0.605-1.997
						c-0.094-0.656-0.187-1.292-0.116-2.111l0.006-0.073c0.041-0.469,0.454-0.816,0.923-0.776
						C667.151,235.992,667.301,236.053,667.423,236.143z"/>
				</g>
				<g>
					<path style="fill:#656DAE;" d="M353.163,204.265c-0.427,0.756-0.853,1.288-1.271,1.858c-0.433,0.559-0.833,1.092-1.469,1.668
						l-0.072,0.065c-0.371,0.336-0.945,0.308-1.281-0.063c-0.136-0.15-0.212-0.334-0.231-0.521c-0.103-1.05,0.332-2.041,0.969-2.817
						c0.651-0.765,1.53-1.381,2.573-1.501c0.458-0.053,0.872,0.276,0.924,0.734c0.021,0.182-0.019,0.357-0.103,0.506
						L353.163,204.265z"/>
				</g>
				<g>
					<path style="fill:#656DAE;" d="M353.285,212.488c-0.266,0.879-0.561,1.551-0.822,2.265c-0.277,0.708-0.513,1.387-0.935,2.19
						l-0.043,0.083c-0.23,0.438-0.772,0.607-1.211,0.377c-0.194-0.102-0.335-0.265-0.413-0.453c-0.43-1.044-0.292-2.21,0.131-3.21
						c0.439-0.994,1.173-1.898,2.21-2.329c0.421-0.175,0.903,0.025,1.078,0.445c0.076,0.183,0.081,0.378,0.028,0.554
						L353.285,212.488z"/>
				</g>
				<g>
					<path style="fill:#656DAE;" d="M354.465,221.019c-0.119,0.993-0.246,1.798-0.289,2.643c-0.056,0.844-0.042,1.641-0.089,2.627
						l-0.004,0.094c-0.023,0.486-0.436,0.862-0.923,0.839c-0.241-0.011-0.457-0.121-0.608-0.285
						c-0.859-0.937-1.154-2.264-1.036-3.497c0.13-1.233,0.66-2.471,1.661-3.239c0.355-0.273,0.864-0.206,1.136,0.149
						c0.134,0.174,0.186,0.385,0.162,0.587L354.465,221.019z"/>
				</g>
				<g>
					<path style="fill:#656DAE;" d="M357.816,230.839c-0.21,0.863-0.396,1.519-0.526,2.225c-0.14,0.704-0.224,1.361-0.397,2.218
						l-0.026,0.128c-0.097,0.481-0.565,0.792-1.046,0.695c-0.21-0.042-0.389-0.157-0.514-0.311c-0.746-0.92-0.887-2.192-0.624-3.307
						c0.273-1.113,0.953-2.181,2.014-2.686c0.407-0.194,0.895-0.021,1.089,0.386c0.084,0.176,0.099,0.368,0.056,0.544
						L357.816,230.839z"/>
				</g>
				<g>
					<path style="fill:#656DAE;" d="M360.853,238.897c-0.125,0.964-0.296,1.737-0.409,2.548c-0.128,0.809-0.205,1.581-0.41,2.519
						l-0.019,0.085c-0.105,0.48-0.579,0.783-1.058,0.678c-0.228-0.05-0.417-0.185-0.54-0.362c-0.683-0.985-0.814-2.237-0.602-3.38
						c0.228-1.14,0.793-2.253,1.769-2.937c0.369-0.259,0.879-0.169,1.138,0.2c0.121,0.173,0.166,0.378,0.141,0.572L360.853,238.897z
						"/>
				</g>
				<g>
					<path style="fill:#656DAE;" d="M406.288,149.212c-3.862,0.316-7.741,0.953-11.27,2.472c-3.542,1.484-6.501,4.111-8.262,7.443
						c-0.893,1.654-1.583,3.419-2.047,5.247c-0.5,1.817-0.804,3.688-0.97,5.584c-0.348,3.792-0.257,7.658-0.537,11.584
						c-0.017,0.236-0.222,0.413-0.458,0.397c-0.2-0.014-0.358-0.164-0.391-0.353c-0.682-3.865-0.985-7.826-0.595-11.818
						c0.219-1.986,0.558-3.984,1.164-5.914c0.612-1.924,1.448-3.786,2.529-5.501c2.155-3.449,5.506-6.091,9.224-7.491
						c3.706-1.485,7.644-2.047,11.531-2.496c0.233-0.027,0.444,0.14,0.471,0.373c0.027,0.233-0.14,0.444-0.373,0.471
						C406.3,149.211,406.292,149.211,406.288,149.212z"/>
				</g>
				<g>
					<path style="fill:#656DAE;" d="M397.822,156.961c-1.375,0.445-2.631,1.229-3.716,2.178c-1.089,0.953-1.967,2.125-2.636,3.379
						c-0.684,1.248-1.165,2.571-1.569,3.893c-0.392,1.338-0.674,2.66-1.107,4.11l-0.003,0.01c-0.07,0.236-0.319,0.37-0.554,0.299
						c-0.14-0.042-0.246-0.149-0.292-0.277c-0.545-1.528-0.419-3.197,0.041-4.713c0.447-1.533,1.256-2.932,2.222-4.163
						c1.983-2.434,4.471-4.334,7.316-5.512l0.005-0.002c0.217-0.09,0.466,0.013,0.556,0.23c0.09,0.217-0.013,0.466-0.23,0.556
						C397.843,156.954,397.832,156.958,397.822,156.961z"/>
				</g>
			</g>
		</g>
		<g>
			<ellipse style="fill:#EBF3F9;" cx="706.863" cy="271.292" rx="32.118" ry="4.179"/>
			<g>
				<path style="fill:#A3DCB8;" d="M700.721,122.663c-0.847-2.475-2.466-4.595-4.059-6.665c-3.315-4.308-6.629-8.617-9.944-12.925
					c-2.184-2.839-5.588-6.01-8.803-4.45c-1.836,0.891-2.709,3.09-2.774,5.138c-0.066,2.049,0.501,4.059,0.752,6.093
					c0.626,5.074-0.715,10.171-0.886,15.281c-0.371,11.071,5.182,22.168,14.245,28.467c3.083,2.143,6.705,3.945,8.398,7.306
					c1.394,2.768,1.195,6.101,2.386,8.963c0.134,0.322,0.303,0.656,0.606,0.826c0.495,0.278,1.115,0.003,1.572-0.334
					c3.217-2.373,3.296-7.125,2.755-11.1c-0.933-6.852-3.899-12.907-5.281-19.524C698.51,134.095,702.812,128.773,700.721,122.663z"
					/>
				<path style="fill:#A3DCB8;" d="M701.864,156.755c-0.456-4.993,0.321-10.011,0.379-15.024c0.067-5.7-0.795-11.389-0.574-17.086
					c0.221-5.696,1.695-11.642,5.668-15.71c1.397-1.43,3.472-2.641,5.307-1.859c0.847,0.361,1.481,1.095,1.984,1.869
					c2.448,3.766,2.352,8.628,1.74,13.085s-1.654,8.986-0.801,13.403c0.659,3.409,2.409,6.505,3.348,9.847
					c1.924,6.849-0.079,14.543-4.677,19.877c-2.494,2.892-4.951,5.638-8.097,2.587C703.36,165.05,702.203,160.478,701.864,156.755z"
					/>
				<path style="fill:#A3DCB8;" d="M713.472,143.497c2.087-2.78,4.663-5.17,6.649-8.025c5.293-7.61,5.898-17.754,11.154-25.39
					c0.679-0.986,1.506-1.975,2.653-2.305c2.352-0.677,4.554,1.883,4.731,4.337c0.176,2.453-0.911,4.795-1.485,7.186
					c-2.481,10.338,4.639,21.553,0.986,31.533c-1.104,3.016-3.109,5.599-5.093,8.119c-2.64,3.354-5.331,6.726-8.684,9.357
					c-2.997,2.351-7.146,4.562-11.076,4.355c-3.89-0.204-4.373-2.491-5.049-6.056C706.745,158.63,708.59,150.002,713.472,143.497z"
					/>
				<path style="fill:#A3DCB8;" d="M689.475,151.593c-5.627-4.518-12.431-7.348-18.149-11.748c-3.003-2.31-5.695-5.046-8.925-7.022
					c-3.23-1.977-7.233-3.14-10.814-1.918c-5.36,2.726,1.428,13.508,3.755,19.887c1.951,5.349,7.023,9.412,12.645,10.128
					c4.683,0.597,9.995-0.819,13.785,2.011c1.445,1.079,2.441,2.65,3.714,3.929c2.816,2.83,11.537,6.305,12.85,0.614
					C699.65,161.785,693.388,154.735,689.475,151.593z"/>
				<g>
					<path style="fill:#3C3C3B;" d="M729.963,117.139c-0.23,6.086-1.177,12.156-3.023,17.971c-0.908,2.908-1.988,5.772-3.276,8.537
						c-1.285,2.763-2.672,5.468-4.026,8.167c-2.759,5.374-5.023,10.902-6.356,16.729c-0.668,2.904-1.171,5.845-1.509,8.813
						c-0.318,2.968-0.498,5.959-0.54,8.975l-0.818,0.053c-0.858-6.061-0.428-12.306,0.999-18.283
						c0.74-2.984,1.668-5.924,2.845-8.764c1.196-2.835,2.616-5.549,4.085-8.204c1.465-2.659,2.988-5.268,4.324-7.964
						c1.337-2.691,2.525-5.458,3.448-8.322c1.837-5.721,2.943-11.708,3.03-17.729L729.963,117.139z"/>
				</g>
				<g>
					<path style="fill:#3C3C3B;" d="M708.872,116.477c-0.002,5.862,0.067,11.723-0.024,17.585
						c-0.043,5.862-0.125,11.725-0.259,17.59c-0.076,2.932-0.185,5.863-0.304,8.794c-0.147,2.93-0.339,5.857-0.534,8.784
						c-0.428,5.851-1.049,11.69-2.121,17.473l-0.815-0.085c0.144-5.87,0.571-11.7,1.021-17.532l0.657-8.749l0.634-8.753
						c0.406-5.838,0.696-11.686,0.854-17.538c0.11-5.852,0.211-11.707,0.071-17.56L708.872,116.477z"/>
				</g>
				<g>
					<path style="fill:#3C3C3B;" d="M655.785,135.479c1.349,2.659,3.515,4.838,5.949,6.594c2.441,1.77,5.155,3.152,7.902,4.444
						c5.494,2.585,11.302,4.646,16.489,8.04c5.123,3.502,9.155,8.412,11.988,13.897c2.793,5.501,4.45,11.67,4.228,17.941
						l-1.414,0.025c-0.319-3.219-0.558-6.452-0.644-9.699c-0.097-3.242,0.061-6.519,0.148-9.696
						c0.031-1.588-0.024-3.144-0.216-4.692c-0.188-1.54-0.55-3.107-0.859-4.661c-0.71-3.1-1.633-6.153-2.679-9.167
						c-1.069-3.007-2.259-5.977-3.511-8.925c-1.261-2.946-2.628-5.852-3.996-8.761l-4.114-8.741
						c-1.35-2.929-2.691-5.866-3.934-8.847l0.744-0.344l8.869,17.174c2.845,5.792,5.62,11.663,7.75,17.813
						c1.049,3.079,1.975,6.207,2.685,9.394c0.31,1.606,0.668,3.186,0.862,4.847c0.204,1.65,0.221,3.325,0.161,4.956
						c-0.148,3.261-0.358,6.422-0.319,9.626c0.028,3.196,0.207,6.397,0.466,9.595l-1.414,0.026
						c0.32-5.946-1.162-11.975-3.788-17.374c-2.657-5.377-6.509-10.292-11.485-13.677c-5.043-3.332-10.826-5.422-16.347-8.041
						c-2.767-1.306-5.498-2.739-8.018-4.532c-2.506-1.786-4.788-4.04-6.23-6.839L655.785,135.479z"/>
				</g>
				<path style="fill:#FFB162;" d="M681.492,186.357h48.061l-4.598,78.55c-0.246,4.203-3.707,7.484-7.895,7.484h-20.466
					c-4.192,0-7.691-3.216-8.067-7.414L681.492,186.357z"/>
				<g>
					<g>
						<path style="fill:#E08A30;" d="M726.132,198.328c-0.497-0.848-1.392-1.472-2.375-1.668c-0.989-0.222-2.009,0.077-2.838,0.675
							c-1.692,1.186-2.71,3.281-4.734,4.459c-2.022,1.117-4.591,1.04-6.589-0.14c-1.018-0.555-1.807-1.556-2.387-2.427
							c-0.596-0.892-1.272-1.503-2.205-1.686c-0.91-0.191-1.919-0.043-2.811,0.338c-0.893,0.379-1.719,1.006-2.507,1.692
							c-1.578,1.351-3.162,3.097-5.493,3.88c-1.148,0.406-2.499,0.378-3.649-0.029c-1.157-0.41-2.142-1.13-2.936-1.986
							c-1.582-1.763-2.338-3.912-2.966-5.975c-0.051-0.168,0.044-0.347,0.212-0.398c0.151-0.046,0.309,0.025,0.378,0.161
							c0.973,1.927,1.879,3.9,3.329,5.282c1.43,1.393,3.384,2.157,5.181,1.527c1.858-0.572,3.354-2.115,5.052-3.529
							c0.869-0.696,1.81-1.373,2.932-1.802c1.109-0.417,2.348-0.575,3.551-0.263c0.595,0.162,1.174,0.45,1.645,0.866
							c0.47,0.416,0.805,0.907,1.104,1.368c0.574,0.943,1.137,1.719,2.02,2.249c1.687,1.075,4.018,1.261,5.815,0.282
							c1.807-0.997,2.847-3.054,4.711-4.373c0.468-0.324,0.997-0.582,1.563-0.724c0.573-0.135,1.17-0.141,1.739-0.026
							c1.141,0.215,2.192,0.911,2.807,1.925c0.091,0.15,0.043,0.345-0.107,0.436c-0.15,0.091-0.345,0.043-0.436-0.107
							C726.136,198.335,726.133,198.329,726.132,198.328z"/>
					</g>
					<g>
						<path style="fill:#E08A30;" d="M725.626,204.899c-0.689-0.53-1.611-0.693-2.504-0.576c-0.898,0.118-1.769,0.479-2.552,0.959
							c-1.573,0.983-2.889,2.448-4.662,3.386c-1.775,0.958-3.959,1.092-5.871,0.414c-0.959-0.335-1.853-0.871-2.608-1.577
							c-0.734-0.708-1.294-1.49-1.975-1.961c-1.318-0.968-3.211-0.345-4.58,0.718c-0.726,0.536-1.431,1.174-2.217,1.787
							c-0.775,0.609-1.703,1.194-2.714,1.508c-2.017,0.649-4.219,0.464-6.101-0.363c-0.937-0.43-1.801-1.009-2.537-1.72
							c-0.717-0.727-1.315-1.58-1.668-2.525c-0.062-0.165,0.022-0.349,0.187-0.41c0.145-0.054,0.303,0.004,0.382,0.129l0.003,0.004
							c1.952,3.116,5.979,4.486,9.277,3.468c1.653-0.462,2.931-1.848,4.583-3.013c0.837-0.58,1.814-1.054,2.882-1.233
							c1.053-0.198,2.309,0.021,3.179,0.738c0.862,0.685,1.379,1.531,1.997,2.175c0.61,0.637,1.367,1.148,2.208,1.47
							c1.671,0.654,3.644,0.645,5.264-0.207c1.646-0.838,2.969-2.272,4.652-3.311c0.851-0.512,1.793-0.882,2.795-1.021
							c0.99-0.148,2.103,0.013,2.96,0.651l0.004,0.003c0.141,0.105,0.17,0.304,0.065,0.444c-0.105,0.141-0.304,0.17-0.445,0.065
							C725.629,204.902,725.627,204.9,725.626,204.899z"/>
					</g>
					<g>
						<path style="fill:#E08A30;" d="M725.123,213.479c-0.675-0.437-1.553-0.506-2.378-0.316c-0.838,0.185-1.595,0.611-2.302,1.137
							c-0.711,0.522-1.382,1.127-2.12,1.68c-0.732,0.558-1.575,1.029-2.47,1.32c-1.789,0.582-3.773,0.576-5.565-0.074
							c-0.891-0.322-1.745-0.816-2.475-1.415c-0.721-0.59-1.362-1.214-2.059-1.625c-1.35-0.871-3.055-0.457-4.491,0.395
							c-1.47,0.825-2.869,2.126-4.787,2.775c-3.75,1.286-8.218-0.257-10.191-3.543c-0.091-0.151-0.042-0.347,0.109-0.438
							c0.132-0.079,0.298-0.052,0.398,0.056l0.005,0.005c2.355,2.541,6.083,3.524,9.207,2.508c1.556-0.47,2.904-1.674,4.588-2.583
							c0.856-0.445,1.794-0.794,2.815-0.887c1.01-0.109,2.133,0.169,2.953,0.751c0.83,0.562,1.449,1.253,2.095,1.837
							c0.634,0.583,1.343,1.04,2.139,1.362c1.578,0.635,3.406,0.751,5.055,0.234c1.678-0.481,2.953-1.764,4.436-2.854
							c0.741-0.543,1.598-1.006,2.53-1.217c0.917-0.229,1.982-0.187,2.85,0.353c0.149,0.093,0.195,0.288,0.102,0.437
							c-0.093,0.149-0.289,0.195-0.438,0.102C725.127,213.481,725.124,213.48,725.123,213.479z"/>
					</g>
					<g>
						<path style="fill:#E08A30;" d="M724.822,220.393c-0.824-0.354-1.723-0.518-2.567-0.34c-0.843,0.196-1.555,0.771-2.093,1.484
							c-0.515,0.716-1.037,1.589-1.714,2.279c-0.669,0.706-1.469,1.32-2.388,1.707c-1.865,0.791-3.957,0.579-5.793-0.057
							c-0.931-0.316-1.841-0.924-2.519-1.606c-0.69-0.681-1.31-1.222-2.106-1.511c-1.564-0.601-3.461-0.341-4.737,0.659
							c-0.643,0.454-1.093,1.222-1.843,1.995c-0.77,0.811-1.891,1.255-2.913,1.396c-4.149,0.579-8.31-2.146-9.496-5.932
							c-0.053-0.168,0.041-0.347,0.209-0.4c0.148-0.046,0.306,0.025,0.378,0.156c1.731,3.17,5.316,5.128,8.699,4.702
							c0.832-0.113,1.558-0.394,2.106-0.95c0.583-0.548,1.112-1.456,2.034-2.087c1.765-1.235,4.086-1.425,5.999-0.587
							c0.481,0.206,0.921,0.502,1.326,0.828c0.392,0.335,0.72,0.697,1.039,1.03c0.618,0.684,1.289,1.175,2.131,1.505
							c1.663,0.636,3.573,0.924,5.229,0.237c0.822-0.336,1.554-0.881,2.183-1.531c0.651-0.653,1.104-1.406,1.694-2.209
							c0.593-0.776,1.436-1.444,2.441-1.683c1.004-0.231,2.043-0.044,2.946,0.327c0.163,0.065,0.242,0.25,0.176,0.413
							c-0.065,0.163-0.25,0.242-0.413,0.176C724.828,220.396,724.823,220.394,724.822,220.393z"/>
					</g>
				</g>
			</g>
		</g>
		<g>
			<g>
				<path style="fill:#F7C5B4;" d="M529.727,200.039c7.782,0.059,25.668-1.287,25.667-8.626c0-4.232-2.12-8.151-4.043-11.89
					c-1.998-3.886-4.167-7.84-6.411-11.749l-8.74,11.515c1.755,2.925,5.649,7.981,5.649,7.981
					c-4.191,1.269-9.275,3.987-13.234,5.893L529.727,200.039z"/>
			</g>
			<g>
				<path style="fill:#F7C5B4;" d="M483.566,200.852c-7.782,0.059-25.668-1.287-25.668-8.626c0-4.232,2.121-8.151,4.043-11.89
					c1.998-3.886,4.167-7.84,6.411-11.749l8.74,11.515c-1.755,2.925-5.649,7.981-5.649,7.981c4.191,1.269,9.275,3.987,13.235,5.893
					L483.566,200.852z"/>
			</g>
			<path style="fill:#3C3C3B;" d="M524.95,108.528c1.559,4.827-0.504,10.327,1.318,15.061c0.853,2.217,2.479,4.032,3.974,5.878
				c1.496,1.846,2.936,3.875,3.294,6.223c0.359,2.349-0.701,5.074-2.934,5.888c-1.164,0.424-2.492,0.295-3.609,0.829
				c-1.734,0.829-2.381,2.904-3.358,4.559c-2.38,4.033-7.773,5.988-12.184,4.416c-3.633-1.294-6.793-4.677-10.606-4.099
				c-1.329,0.201-2.529,0.881-3.767,1.406c-2.361,1.001-5.08,1.445-7.493,0.576c-2.413-0.869-4.359-3.299-4.09-5.849
				c0.184-1.744,1.322-3.328,1.253-5.08c-0.072-1.834-1.427-3.322-2.258-4.958c-0.986-1.939-1.249-4.234-0.728-6.346
				c0.628-2.548,2.307-4.695,3.344-7.106c1.283-2.984,1.55-6.287,2.228-9.463c0.678-3.176,1.918-6.453,4.536-8.375
				c1.171-0.859,2.548-1.393,3.937-1.816c5.148-1.571,10.714-1.749,15.951-0.509C518.292,100.836,523.453,103.893,524.95,108.528z"
				/>
			<g>
				<path style="fill:#62B5C3;" d="M466.697,167.68c3.591-9.536,22.648-19.634,29.22-20.615l21,0.047
					c6.019,0.347,26.337,12.981,29.797,20.568l-11.256,13.095h-60.049L466.697,167.68z"/>
			</g>
			<polygon style="fill:#BFDDE9;" points="536.877,216.64 475.827,216.64 472.485,168.639 540.92,168.639 			"/>
			<path style="fill:#BFDDE9;" d="M536.877,216.64h-61.05l-3.342-48.001C472.485,168.639,475.909,215.947,536.877,216.64z"/>
			<path style="fill:#3C3C3B;" d="M531.637,234.226c5.061,1.778,11.322,1.821,16.394,1.684c3.363-0.091,5.762-0.372,8.848-1.712
				c1.869-0.811,3.735-2.188,4.1-4.192c0.447-2.448-1.632-4.768-3.994-5.552c-2.362-0.783-4.925-0.448-7.404-0.237
				c-5.296,0.449-10.643,0.285-15.901-0.489L531.637,234.226z"/>
			<path style="fill:#F7C5B4;" d="M531.637,234.575c3.781,1.417,8.458,1.452,12.247,1.342c2.512-0.073,4.304-0.297,6.609-1.364
				c1.396-0.646,2.79-1.743,3.063-3.341c0.333-1.951-1.219-3.8-2.983-4.424c-1.764-0.624-3.679-0.357-5.531-0.189
				c-3.956,0.358-7.95,0.227-11.878-0.389L531.637,234.575z"/>
			<path style="fill:#3C3C3B;" d="M480.014,233.926c-5.061,1.778-11.322,1.821-16.394,1.683c-3.363-0.091-5.762-0.372-8.848-1.712
				c-1.869-0.811-3.734-2.188-4.1-4.192c-0.447-2.448,1.632-4.768,3.994-5.551c2.362-0.783,4.925-0.448,7.404-0.237
				c5.296,0.45,10.643,0.285,15.901-0.489L480.014,233.926z"/>
			<path style="fill:#F7C5B4;" d="M480.014,234.275c-3.781,1.417-8.458,1.451-12.247,1.342c-2.512-0.073-4.304-0.297-6.609-1.364
				c-1.396-0.646-2.79-1.743-3.063-3.341c-0.334-1.951,1.219-3.8,2.983-4.424c1.764-0.624,3.679-0.357,5.531-0.189
				c3.956,0.358,7.95,0.227,11.878-0.389L480.014,234.275z"/>
			<path style="fill:#FFB162;" d="M533.222,235.658c-20.981-1.922-41.81-5.5-62.23-10.691c-8.455-2.149-17.345-4.887-23.028-11.506
				c-2.558-2.98-4.353-7.131-3.005-10.82c0.936-2.562,3.262-4.435,5.816-5.391c2.555-0.956,5.336-1.103,8.064-1.076
				c6.127,0.062,12.244,0.96,18.13,2.662c7.496,2.168,14.551,5.609,21.568,9.02c11.781,5.726,23.703,11.459,36.464,14.416
				L533.222,235.658z"/>
			<path style="fill:#FFB162;" d="M478.205,235.658c20.981-1.922,41.81-5.5,62.23-10.691c8.455-2.149,17.345-4.887,23.028-11.506
				c2.558-2.98,4.353-7.131,3.005-10.82c-0.936-2.562-3.262-4.435-5.817-5.391c-2.555-0.956-5.336-1.103-8.064-1.076
				c-6.127,0.062-12.244,0.96-18.13,2.662c-7.496,2.168-14.55,5.609-21.568,9.02c-11.781,5.726-23.703,11.459-36.464,14.416
				L478.205,235.658z"/>
			<g>
				<path style="fill:#3C3C3B;" d="M503.577,232.516l30.794-6.057c-2.517,0.725-5.056,1.36-7.604,1.962
					c-2.548,0.602-5.112,1.129-7.676,1.657c-2.573,0.481-5.146,0.966-7.732,1.372C508.772,231.859,506.181,232.232,503.577,232.516z
					"/>
			</g>
			<g>
				<path style="fill:#3C3C3B;" d="M518.701,205.061c-6.813,3.421-13.577,6.953-20.575,10.01c-3.49,1.544-7.028,2.994-10.643,4.234
					c-3.61,1.247-7.274,2.359-11.009,3.175l0.163-0.236l0.809,6.704l0.759,6.71l-1.021-6.675l-0.97-6.682
					c-0.016-0.108,0.053-0.208,0.156-0.234l0.007-0.001c3.691-0.919,7.338-2.007,10.92-3.287c3.581-1.281,7.117-2.692,10.611-4.204
					c3.491-1.518,6.951-3.113,10.409-4.716C511.76,208.225,515.233,206.646,518.701,205.061z"/>
			</g>
			<g>
				<g>
					<path style="fill:#F7C5B4;" d="M512.128,135.241l0.828,11.202l3.961,0.67c0,0-1.454,6.256-10.625,6.303
						c-9.171,0.046-10.375-6.35-10.375-6.35l1-0.189c0.487-0.092,0.977-0.167,1.469-0.224l1.185-0.138
						c0.522-3.733,0.668-7.078,1.168-11.439"/>
				</g>
				<path id="XMLID_3993_" style="fill:#F7C5B4;" d="M491.32,108.749c-1.148,6.687,0.185,16.76,1.683,22.047
					c0.609,2.149,1.262,4.371,2.673,6.103c6.969,8.557,16.081,5.711,19.062,3.697c2.34-1.58,4.191-3.733,5.246-6.351
					c2.692-6.683,3.739-14.021,3.023-21.19c0,0-0.618-16.27-17.534-14.9C505.474,98.155,493.238,97.583,491.32,108.749z"/>
				<path id="XMLID_3987_" style="fill:#3C3C3B;" d="M500.01,140.739c4.602,2.773,9.53,2.108,12.594,0.944
					c0,0-0.922,2.062-6.365,1.805C501.241,143.252,500.01,140.739,500.01,140.739z"/>
				<g>
					<path id="XMLID_3980_" style="fill:#3C3C3B;" d="M498.159,127.074c0.046,0.585,0.559,1.023,1.144,0.977
						c0.586-0.046,1.022-0.558,0.976-1.144c-0.046-0.586-0.558-1.023-1.144-0.977C498.549,125.976,498.112,126.489,498.159,127.074z
						"/>
					<path id="XMLID_3979_" style="fill:#3C3C3B;" d="M514.293,127.074c0.047,0.586,0.559,1.023,1.144,0.977
						c0.585-0.046,1.023-0.559,0.976-1.144c-0.046-0.586-0.558-1.023-1.144-0.976C514.685,125.976,514.247,126.488,514.293,127.074z
						"/>
					<g id="XMLID_3976_">
						<path style="fill:#3C3C3B;" d="M501.696,124.048c-2.065-0.383-4.177,0.023-5.964,1.106c-0.099,0.061-0.228,0.03-0.289-0.068
							c-0.054-0.088-0.035-0.201,0.039-0.268c1.676-1.488,4.235-1.936,6.319-1.139c0.099,0.038,0.149,0.149,0.111,0.249
							C501.878,124.016,501.785,124.065,501.696,124.048z"/>
					</g>
					<g id="XMLID_3968_">
						<path style="fill:#3C3C3B;" d="M512.403,123.951c2.029-0.931,4.61-0.649,6.379,0.728c0.092,0.071,0.108,0.203,0.037,0.295
							c-0.063,0.081-0.176,0.103-0.264,0.057c-1.853-0.965-3.987-1.235-6.023-0.718c-0.103,0.027-0.208-0.035-0.235-0.138
							C512.273,124.083,512.32,123.99,512.403,123.951z"/>
					</g>
					<path id="XMLID_3967_" style="fill:#E89B8D;" d="M508.265,123.38c0.438,2.007,0.286,4.074,0.43,6.111
						c0.007,0.101,0.013,0.206-0.052,0.298c-0.136,0.192-0.49,0.218-0.782,0.218c-0.442-0.001-0.883-0.001-1.325-0.002
						c-0.235,0-0.507-0.013-0.638-0.152c-0.078-0.083-0.085-0.191-0.089-0.293c-0.071-1.979,0.112-3.969,0.545-5.936
						c0.043-0.194,0.092-0.397,0.252-0.559c0.229-0.234,0.683-0.337,1.04-0.236C507.647,122.828,508.172,122.952,508.265,123.38z"/>
					<g>
						<path style="fill:#3C3C3B;" d="M509.585,131.261c-0.422,0.436-1.007,0.686-1.597,0.816c-0.598,0.086-1.235,0.055-1.783-0.211
							c-0.057-0.026-0.081-0.094-0.055-0.15c0.023-0.05,0.08-0.074,0.132-0.062c1.078,0.289,2.251,0.09,3.171-0.551
							c0.047-0.033,0.112-0.021,0.144,0.026C509.625,131.17,509.619,131.226,509.585,131.261z"/>
					</g>
				</g>
				<path style="fill:#3C3C3B;" d="M489.869,117.112c-0.166-1.717-0.198-3.448-0.094-5.17c0.271-4.49,2.75-14.46,15.614-15.087
					c2.415-0.118,4.871,0.033,7.177,0.759c2.307,0.726,4.467,2.088,5.834,4.083c0,0,0.988,0.959,0.281,2.827
					c-0.214,0.565-0.457,1.035-0.606,1.62c-0.213,0.833-0.428,1.673-0.802,2.447c-0.5,1.034-1.266,1.914-2.066,2.738
					c-6.601,6.805-14.823,9.362-24.078,11.418C490.553,120.499,490.092,119.422,489.869,117.112z"/>
				<g id="XMLID_3948_">
					<path id="XMLID_3961_" style="fill:#F7C5B4;" d="M492.86,127.61c-0.502,0.641-1.431,0.911-2.199,0.639
						c-0.6-0.212-1.059-0.699-1.439-1.207c-1.003-1.341-1.636-3.081-1.206-4.698c0.107-0.402,0.287-0.8,0.607-1.067
						c0.532-0.443,1.341-0.412,1.962-0.105c0.415,0.206,0.991,0.875,1.525,1.621"/>
					<g id="XMLID_3953_">
						<g id="XMLID_3957_">
							<path style="fill:#3C3C3B;" d="M489.52,122.561c0.739,0.23,1.39,0.691,1.945,1.23c0.522,0.57,0.963,1.238,1.166,1.986
								c0.016,0.061-0.019,0.123-0.079,0.139c-0.054,0.015-0.11-0.013-0.133-0.063c-0.306-0.669-0.69-1.3-1.213-1.813
								c-0.489-0.545-1.106-0.955-1.764-1.288c-0.051-0.026-0.072-0.088-0.046-0.139C489.42,122.567,489.473,122.546,489.52,122.561
								z"/>
						</g>
						<g id="XMLID_3954_">
							<path style="fill:#3C3C3B;" d="M491.598,124.246c-0.253,0.419-0.476,0.851-0.57,1.326c-0.138,0.463-0.146,0.948-0.122,1.435
								c0.004,0.063-0.044,0.116-0.106,0.12c-0.053,0.003-0.1-0.032-0.115-0.081c-0.153-0.505-0.114-1.05-0.005-1.563
								c0.154-0.502,0.382-0.997,0.757-1.366c0.041-0.04,0.107-0.039,0.147,0.001C491.618,124.152,491.622,124.206,491.598,124.246z
								"/>
						</g>
					</g>
				</g>
				<path style="fill:#3C3C3B;" d="M523.697,123.342c2.609-4.062,2.221-9.37,0.909-14.015c-0.551-1.95-1.271-3.904-2.571-5.458
					c-4.094-4.895-11.782-1.397-9.933,4.841C513.67,114.002,518.334,121.306,523.697,123.342z"/>
				<g id="XMLID_3826_">
					<path id="XMLID_3846_" style="fill:#F7C5B4;" d="M521.732,127.684c0.502,0.64,1.431,0.911,2.199,0.639
						c0.6-0.212,1.058-0.699,1.438-1.207c1.003-1.341,1.636-3.081,1.206-4.698c-0.107-0.402-0.287-0.8-0.607-1.067
						c-0.532-0.443-1.341-0.412-1.962-0.105c-0.415,0.206-0.991,0.875-1.525,1.621"/>
					<g id="XMLID_3841_">
						<g id="XMLID_3844_">
							<path style="fill:#3C3C3B;" d="M525.149,122.826c-0.658,0.333-1.274,0.743-1.764,1.288c-0.523,0.513-0.906,1.145-1.213,1.813
								c-0.026,0.057-0.093,0.082-0.15,0.056c-0.051-0.023-0.076-0.08-0.063-0.133c0.203-0.748,0.644-1.416,1.166-1.986
								c0.555-0.539,1.206-1,1.945-1.23c0.055-0.017,0.113,0.014,0.13,0.068C525.217,122.752,525.193,122.804,525.149,122.826z"/>
						</g>
						<g id="XMLID_3842_">
							<path style="fill:#3C3C3B;" d="M523.156,124.19c0.375,0.37,0.603,0.864,0.757,1.366c0.11,0.513,0.149,1.058-0.004,1.563
								c-0.018,0.06-0.082,0.094-0.142,0.076c-0.051-0.015-0.083-0.064-0.08-0.115c0.024-0.487,0.016-0.972-0.122-1.435
								c-0.094-0.475-0.316-0.907-0.57-1.326c-0.03-0.049-0.015-0.113,0.034-0.143C523.069,124.15,523.122,124.158,523.156,124.19z"
								/>
						</g>
					</g>
				</g>
			</g>
		</g>
		<g>
			<path style="fill:#EBF3F9;" d="M344.777,292.299c0,1.423-9.405,2.576-21.007,2.576c-11.602,0-21.007-1.153-21.007-2.576
				c0-1.423,9.405-2.576,21.007-2.576C335.372,289.723,344.777,290.876,344.777,292.299z"/>
			<rect x="321.638" y="85.559" style="fill:#3C3C3B;" width="5.557" height="204.937"/>
			<path id="XMLID_3806_" style="fill:#FFDC75;" d="M355.615,100.637c0,0-33.395,7.012-62.396,0l22.624-47.836h17.22
				L355.615,100.637z"/>
			<rect x="309.736" y="286.892" style="fill:#8BC8D3;" width="28.069" height="5.662"/>
			<g>
				<path style="fill:#E08A30;" d="M330.086,56.711c1.204,3.457,2.383,6.922,3.522,10.399l3.373,10.446l3.244,10.487
					c1.054,3.504,2.101,7.011,3.079,10.539c0.069,0.249-0.077,0.506-0.325,0.575c-0.238,0.066-0.484-0.066-0.566-0.295
					c-1.218-3.453-2.368-6.927-3.511-10.403l-3.346-10.455l-3.218-10.495c-1.058-3.503-2.075-7.019-3.068-10.542
					c-0.064-0.228,0.068-0.464,0.296-0.528C329.784,56.378,330.012,56.5,330.086,56.711z"/>
			</g>
			<g>
				<path style="fill:#E08A30;" d="M325.132,57.949c0.111,3.471,0.195,6.941,0.238,10.411l0.081,10.411l-0.054,10.411
					c-0.047,3.47-0.101,6.941-0.226,10.411c-0.009,0.258-0.226,0.459-0.484,0.45c-0.246-0.009-0.441-0.208-0.45-0.45
					c-0.125-3.471-0.18-6.941-0.226-10.411l-0.054-10.411l0.081-10.411c0.043-3.471,0.127-6.941,0.238-10.411
					c0.008-0.236,0.205-0.422,0.441-0.414C324.944,57.542,325.124,57.726,325.132,57.949z"/>
			</g>
			<g>
				<path style="fill:#E08A30;" d="M319.389,58.14c-0.917,3.338-1.859,6.668-2.842,9.986l-2.992,9.941l-3.121,9.901
					c-1.068,3.292-2.142,6.581-3.285,9.849c-0.085,0.244-0.352,0.372-0.595,0.287c-0.232-0.081-0.358-0.333-0.296-0.567
					c0.903-3.342,1.874-6.663,2.853-9.981l3.017-9.93l3.146-9.89c1.063-3.292,2.167-6.572,3.296-9.844
					c0.075-0.224,0.317-0.345,0.542-0.27C319.327,57.692,319.445,57.924,319.389,58.14z"/>
			</g>
		</g>
	</g>
	<g>
		<path style="fill:#E1F1F4;" d="M183.799,132.637c17.37,16.583,24.493,41.454,30.246,65.226
			c12.531,51.781,24.026,107.563,61.159,144.462c14.777,14.684,34.559,28.582,35.303,49.849c0.443,12.675-6.657,24.758-16.223,32.8
			c-9.565,8.042-21.367,12.624-33.131,16.354c-38.799,12.303-80.58,16.722-119.865,7.013c-39.285-9.71-75.778-34.59-95.29-71.065
			c-12.792-23.915-17.879-51.534-19.626-78.893c-2.081-32.594,0.458-66.069,12.18-96.538c11.722-30.469,33.357-57.755,62.213-71.393
			C100.765,130.453,158.86,108.828,183.799,132.637z"/>
		<g>
			<path style="fill:#EBF3F9;" d="M338.588,444.169c0,2.046-11.639,3.704-25.997,3.704s-25.997-1.658-25.997-3.704
				c0-2.046,11.639-3.704,25.997-3.704S338.588,442.124,338.588,444.169z"/>
			<g>
				<g id="XMLID_4141_">
					<g id="XMLID_4155_">
						<path id="XMLID_4160_" style="fill:#91CCA2;" d="M320.135,402.437c10.583-8.841,15.2-22.891,17.725-36.447
							c0.673-3.612,1.22-7.423,0.014-10.894c-1.206-3.471-4.735-6.411-8.339-5.698c-2.484,0.491-4.367,2.517-5.782,4.617
							c-3.593,5.329-5.31,11.715-6.19,18.082c-1.395,10.087-0.18,20.584,2.323,30.455"/>
						<g id="XMLID_4156_">
							<g id="XMLID_4157_">
								<path style="fill:#3C3C3B;" d="M330.091,361.1c-0.967,4.894-2.001,9.775-3.116,14.638
									c-1.103,4.866-2.251,9.721-3.445,14.565c-1.22,4.838-2.503,9.66-3.822,14.471c-1.31,4.814-2.694,9.608-4.152,14.379
									c-0.042,0.136-0.186,0.213-0.322,0.171c-0.134-0.041-0.21-0.182-0.173-0.316l3.944-14.425
									c1.289-4.815,2.522-9.645,3.728-14.48c1.232-4.83,2.418-9.671,3.559-14.523l3.337-14.578
									c0.029-0.127,0.155-0.207,0.282-0.179C330.035,360.851,330.115,360.975,330.091,361.1z"/>
							</g>
						</g>
					</g>
					<g id="XMLID_4148_">
						<path id="XMLID_4154_" style="fill:#91CCA2;" d="M313.904,392.911c7.794-11.376,8.433-26.151,7.194-39.885
							c-0.33-3.659-0.835-7.476-2.936-10.49c-2.101-3.015-6.294-4.889-9.571-3.227c-2.258,1.146-3.522,3.606-4.316,6.01
							c-2.016,6.103-1.939,12.715-1.063,19.082c1.388,10.088,5.401,19.864,10.483,28.688"/>
						<g id="XMLID_4149_">
							<g id="XMLID_4152_">
								<path style="fill:#3C3C3B;" d="M314.003,392.698c0.136,2.922,0.153,5.847,0.175,8.772l-0.031,4.387
									c-0.022,1.462-0.063,2.924-0.126,4.386c-0.006,0.143-0.126,0.253-0.269,0.247c-0.135-0.006-0.241-0.12-0.247-0.252
									c-0.062-1.461-0.103-2.923-0.124-4.384l-0.029-4.383c0.022-2.922,0.04-5.843,0.178-8.767l0-0.006
									c0.006-0.13,0.117-0.231,0.247-0.225C313.9,392.478,313.997,392.577,314.003,392.698z"/>
							</g>
							<g id="XMLID_4150_">
								<path style="fill:#3C3C3B;" d="M312.293,350.422c0.295,3.472,0.55,6.947,0.75,10.426c0.212,3.478,0.402,6.957,0.567,10.439
									c0.139,3.482,0.234,6.966,0.314,10.45c0.09,3.483,0.123,6.968,0.1,10.453c-0.001,0.143-0.117,0.257-0.259,0.257
									c-0.139-0.001-0.252-0.112-0.257-0.25l-0.313-10.44c-0.11-3.479-0.255-6.957-0.407-10.435
									c-0.125-3.479-0.275-6.957-0.446-10.435l-0.52-10.433c-0.006-0.13,0.094-0.241,0.224-0.248
									C312.173,350.199,312.283,350.296,312.293,350.422z"/>
							</g>
						</g>
					</g>
					<g id="XMLID_4143_">
						<path id="XMLID_4147_" style="fill:#91CCA2;" d="M305.49,400.997c5.442-12.67,3.208-27.289-0.668-40.523
							c-1.033-3.526-2.268-7.173-4.913-9.723c-2.645-2.55-7.122-3.577-10.014-1.312c-1.994,1.561-2.757,4.219-3.07,6.732
							c-0.796,6.378,0.561,12.85,2.654,18.927c3.316,9.628,9.146,18.441,15.841,26.114"/>
						<g id="XMLID_4144_">
							<g id="XMLID_4145_">
								<path style="fill:#3C3C3B;" d="M295.68,359.625c1.35,4.802,2.634,9.624,3.839,14.465c1.217,4.838,2.388,9.689,3.513,14.549
									c1.099,4.867,2.134,9.748,3.133,14.636c1.009,4.886,1.941,9.788,2.798,14.703c0.024,0.14-0.07,0.274-0.21,0.298
									c-0.138,0.024-0.269-0.067-0.297-0.203l-3.005-14.649c-1.027-4.877-2.11-9.743-3.221-14.602
									c-1.085-4.865-2.216-9.719-3.392-14.563l-3.614-14.511c-0.032-0.127,0.044-0.255,0.171-0.288
									C295.518,359.428,295.645,359.502,295.68,359.625z"/>
							</g>
						</g>
					</g>
					<path id="XMLID_4142_" style="fill:#656DAE;" d="M318.647,445.124h-10.705c-6.283,0-11.376-5.093-11.376-11.376v-35.11h31.98
						v36.587C328.546,440.692,324.114,445.124,318.647,445.124z"/>
				</g>
				<g>
					<path style="fill:#A4A6CF;" d="M326.397,411.835c-2.863,0.523-5.72-1.579-6.368-4.333c-0.064-0.349-0.116-0.7-0.106-1.057
						c-0.02-0.357,0.062-0.757,0.306-1.088c0.121-0.165,0.346-0.324,0.604-0.312c0.253,0.005,0.459,0.163,0.584,0.304
						c0.241,0.296,0.414,0.578,0.59,0.887c0.687,1.224,0.977,2.645,0.922,4.036c-0.067,1.392-0.462,2.781-1.231,3.964
						c-0.752,1.197-1.9,2.119-3.178,2.703c-2.554,1.165-5.765,0.978-8.081-0.757c-2.293-1.715-3.585-4.627-3.351-7.496
						c0.078-0.711,0.191-1.432,0.555-2.128c0.341-0.69,1.044-1.318,1.906-1.424c0.424-0.062,0.912,0.026,1.293,0.285
						c0.387,0.253,0.651,0.662,0.775,1.061c0.239,0.814,0.123,1.603-0.168,2.327c-0.579,1.392-1.745,2.448-3.049,3.071
						c-1.312,0.624-2.806,0.868-4.245,0.618c-2.879-0.52-5.185-2.653-6.314-5.171l0.378-0.19c1.297,2.295,3.53,4.132,6.075,4.485
						c2.486,0.375,5.261-0.924,6.25-3.2c0.227-0.521,0.307-1.157,0.159-1.653c-0.144-0.492-0.541-0.772-1.036-0.708
						c-0.508,0.06-0.958,0.411-1.225,0.926c-0.281,0.509-0.403,1.153-0.479,1.785c-0.251,2.547,0.898,5.226,2.938,6.807
						c2.033,1.599,4.986,1.855,7.382,0.819c1.195-0.518,2.272-1.344,2.991-2.44c0.735-1.083,1.149-2.386,1.21-3.703
						c0.059-1.315-0.209-2.658-0.848-3.809c-0.154-0.281-0.344-0.58-0.529-0.81c-0.196-0.217-0.381-0.228-0.545-0.02
						c-0.158,0.218-0.244,0.52-0.223,0.837c-0.011,0.325,0.036,0.645,0.092,0.965c0.285,1.272,1.109,2.402,2.177,3.159
						c1.079,0.741,2.433,1.102,3.708,0.846L326.397,411.835z"/>
				</g>
				<g>
					<path style="fill:#A4A6CF;" d="M326.708,428.872c-1.515,0.999-3.573,0.935-5.056-0.06c-0.72-0.501-1.38-1.231-1.483-2.191
						c-0.141-0.958,0.785-2.004,1.846-1.714c0.513,0.18,0.774,0.642,0.955,1.031c0.173,0.407,0.319,0.822,0.413,1.254
						c0.185,0.862,0.186,1.757,0.033,2.62c-0.307,1.727-1.214,3.337-2.55,4.486c-1.328,1.176-3.159,1.719-4.914,1.61
						c-1.763-0.099-3.482-0.774-4.856-1.895c-1.371-1.12-2.394-2.722-2.647-4.534c-0.291-1.789,0.619-3.909,2.508-4.579l0.313-0.111
						l0.172,0.292c1.527,2.594,0.276,6.292-2.568,7.378c-1.371,0.536-2.922,0.533-4.288-0.003c-1.383-0.516-2.518-1.644-3.104-2.976
						c-0.59-1.331-0.746-2.852-0.369-4.265c0.086-0.345,0.214-0.726,0.448-1.071c0.216-0.338,0.651-0.715,1.19-0.715
						c0.256-0.01,0.535,0.071,0.743,0.219c0.207,0.148,0.351,0.333,0.46,0.519c0.214,0.376,0.301,0.766,0.322,1.16
						c0.009,0.815-0.215,1.477-0.543,2.144c-0.339,0.645-0.828,1.233-1.468,1.621c-1.27,0.78-3.079,0.65-4.05-0.513l0.318-0.28
						c0.869,0.883,2.394,0.904,3.358,0.213c0.991-0.67,1.571-1.993,1.54-3.129c-0.03-0.558-0.386-1.116-0.655-1.041
						c-0.296-0.028-0.638,0.511-0.754,1.108c-0.306,1.194-0.153,2.503,0.36,3.621c0.523,1.115,1.407,2.052,2.558,2.491
						c1.134,0.464,2.459,0.479,3.599,0.047c2.329-0.815,3.44-3.983,2.197-6.111l0.484,0.18c-0.693,0.23-1.281,0.781-1.636,1.459
						c-0.364,0.676-0.486,1.466-0.394,2.253c0.188,1.579,1.084,3.079,2.325,4.123c1.245,1.055,2.836,1.717,4.472,1.838
						c1.632,0.128,3.322-0.337,4.579-1.409c1.265-1.055,2.124-2.584,2.422-4.206c0.148-0.811,0.15-1.65-0.019-2.455
						c-0.086-0.403-0.221-0.79-0.379-1.169c-0.164-0.369-0.388-0.708-0.706-0.814c-0.661-0.207-1.446,0.546-1.316,1.289
						c0.071,0.769,0.645,1.449,1.301,1.902c1.352,0.901,3.258,0.939,4.602,0.032L326.708,428.872z"/>
				</g>
			</g>
		</g>
		<g>
			<rect x="47.602" y="227.278" style="fill:#E1F1F4;" width="22.096" height="7.479"/>
			<rect x="47.602" y="247.723" style="fill:#E1F1F4;" width="22.096" height="7.479"/>
			<rect x="34.679" y="237.5" style="fill:#E1F1F4;" width="22.096" height="7.479"/>
			<rect x="61.453" y="237.5" style="fill:#E1F1F4;" width="22.096" height="7.479"/>
		</g>
		<g>
			<rect x="181.497" y="189.518" style="fill:#E1F1F4;" width="17.715" height="5.997"/>
			<rect x="181.497" y="205.91" style="fill:#E1F1F4;" width="17.715" height="5.997"/>
			<rect x="171.136" y="197.714" style="fill:#E1F1F4;" width="17.715" height="5.997"/>
			<rect x="192.602" y="197.714" style="fill:#E1F1F4;" width="17.715" height="5.997"/>
		</g>
		<rect x="258.293" y="281.554" style="fill:#E08A30;" width="6.915" height="140.315"/>
		<rect x="272.711" y="305.135" style="fill:#FFB162;" width="6.915" height="140.315"/>
		<g>
			<path style="fill:#3C3C3B;" d="M200.874,420.327c4.286,2.835,8.292,6.505,11.867,10.87c1.041,1.271,2.132,3.277,1.425,4.941
				c-0.512,1.205-1.674,1.41-2.672,1.452c-6.371,0.269-12.769-0.772-18.927-3.08c-1.743-0.653-3.612-1.557-4.578-3.697
				c-1.336-2.96-0.376-6.859-0.78-10.318L200.874,420.327z"/>
			<path style="fill:#3C3C3B;" d="M158.071,421.716c2.946,3.024,5.69,6.435,8.185,10.176c0.569,0.854,1.162,1.869,1.094,3.039
				c-0.063,1.08-0.706,1.962-1.43,2.344c-0.723,0.382-1.517,0.36-2.287,0.308c-5.536-0.377-10.997-2.048-16.243-4.519
				c-1.417-0.668-2.893-1.464-3.828-3.101c-1.332-2.33-1.201-5.651-1.003-8.637c0.022-0.331,0.045-0.668,0.132-0.978
				L158.071,421.716z"/>
			<g>
				<g>
					<path style="fill:#3C3C3B;" d="M172.854,310.895c0.589,4.126,1.072,8.262,1.61,12.393l1.438,12.409
						c0.96,8.272,1.785,16.558,2.608,24.843c0.796,8.288,1.567,16.579,2.218,24.88l0.961,12.454
						c0.255,4.158,0.572,8.31,0.774,12.473c0.036,0.734-0.53,1.357-1.264,1.393c-0.69,0.034-1.284-0.471-1.382-1.141
						c-0.589-4.126-1.064-8.263-1.601-12.393l-1.414-12.411c-0.931-8.275-1.743-16.562-2.53-24.851
						c-0.76-8.292-1.517-16.583-2.141-24.888l-0.937-12.457c-0.253-4.158-0.562-8.31-0.764-12.473
						c-0.033-0.672,0.486-1.244,1.158-1.276C172.22,309.819,172.764,310.281,172.854,310.895z"/>
				</g>
				<g>
					<path style="fill:#3C3C3B;" d="M140.623,327.104c0.426,12.173,0.383,24.338,0.219,36.501
						c-0.099,6.081-0.235,12.162-0.457,18.241c-0.2,6.079-0.512,12.157-0.928,18.232c-0.047,0.687-0.642,1.206-1.33,1.159
						c-0.642-0.044-1.138-0.573-1.161-1.203c-0.204-6.086-0.304-12.171-0.292-18.254c-0.011-6.083,0.065-12.164,0.178-18.245
						c0.26-12.162,0.641-24.321,1.49-36.472c0.044-0.629,0.59-1.104,1.219-1.06C140.148,326.045,140.601,326.529,140.623,327.104z"
						/>
				</g>
				<g>
					<path style="fill:#3C3C3B;" d="M114.79,323.061c-0.215,3.66-0.528,7.309-0.791,10.964l-0.953,10.947
						c-0.634,7.298-1.394,14.582-2.155,21.867c-0.788,7.281-1.598,14.56-2.521,21.827l-1.399,10.898
						c-0.528,3.626-0.997,7.258-1.574,10.879c-0.108,0.68-0.748,1.144-1.428,1.036c-0.637-0.102-1.084-0.674-1.049-1.305
						c0.215-3.66,0.536-7.309,0.8-10.963l0.975-10.944c0.66-7.295,1.433-14.578,2.228-21.859c0.821-7.277,1.644-14.555,2.593-21.819
						l1.422-10.896c0.529-3.626,1.007-7.257,1.583-10.878c0.099-0.623,0.685-1.048,1.308-0.949
						C114.413,321.959,114.822,322.484,114.79,323.061z"/>
				</g>
				<g>
					<polygon style="fill:#5F5F5E;" points="104.797,318.094 104.797,322.938 108.907,322.938 108.907,317.833 					"/>
					<ellipse style="fill:#5F5F5E;" cx="143.595" cy="322.938" rx="38.799" ry="14.998"/>
					<ellipse style="fill:#3C3C3B;" cx="143.595" cy="318.094" rx="38.799" ry="14.998"/>
				</g>
			</g>
			<path style="fill:#62B5C3;" d="M162.075,289.794c9.548,5.956,18.951,12.37,28.187,19.229c4.019,2.985,12.341,9.562,12.341,26.717
				c0,27.65,2.605,59.212,1.731,86.923c-6.199,2.336-10.814,0.847-17.222,0.343c-3.286-25.964-11.44-82.767-11.44-82.767
				l-0.367,4.219c-4.509,25.923-9.561,51.658-15.015,77.22c0,0-4.994,1.776-8.909,1.844c-3.273,0.057-9.803-1.844-9.803-1.844
				l8.692-82.318c-6.604-2.244-15.764-7.517-21.311-13.032c-8.989-8.937-11.82-17.233-8.861-32.137L162.075,289.794z"/>
			<g>
				<path style="fill:#3C3C3B;" d="M175.673,340.24c0.233-2.137,0.501-4.267,0.649-6.404c0.181-2.132,0.29-4.269,0.247-6.397
					c-0.097-4.237-0.65-8.526-2.475-12.331c-0.851-1.914-1.941-3.731-3.303-5.334c-1.353-1.613-2.949-3.006-4.637-4.283
					c-1.698-1.267-3.536-2.356-5.437-3.329c-1.887-1.006-3.857-1.858-5.823-2.729c2.051,0.644,4.067,1.401,6.049,2.257
					c1.967,0.887,3.883,1.912,5.686,3.131c3.611,2.419,6.639,5.833,8.436,9.848c1.821,4.013,2.399,8.457,2.32,12.771
					C177.281,331.777,176.59,336.043,175.673,340.24z"/>
			</g>
			<rect x="55.657" y="281.554" style="fill:#E08A30;" width="6.915" height="140.315"/>
			<polygon style="fill:#FFB162;" points="55.657,281.554 265.197,281.554 279.626,305.135 62.095,305.135 			"/>
			<g>
				<path style="fill:#3C3C3B;" d="M157.246,196.322c-0.151,0.49-0.51,1.082-0.944,0.898c-0.221-0.094-0.337-0.36-0.417-0.608
					c-0.458-1.408-0.465-2.94-0.54-4.436c-0.148-2.936-0.58-5.854-1.286-8.686c-0.209-0.838-0.443-1.683-0.439-2.552
					c0.005-0.869,0.293-1.787,0.934-2.281c2.774-2.139,3.55,5.32,3.716,6.912C158.645,189.179,158.309,192.884,157.246,196.322z"/>
				<path style="fill:#656DAE;" d="M189.56,289.525c-4.318-1.715-5.466-2.58-14.115-5.809c-1.67-0.624-4.057-2.245-5.394-3.424
					c-1.337-1.179-3.539-4.237-3.73-6.009c-1.178-10.924-2.003-15.213-2.293-26.155c1.124,15.947,1.659,25.096,2.337,38.726h-19.751
					l-26.63-0.713v-16.325c-0.126-4.645-0.711-13.315-0.711-13.315c-1.154,4.111-3.195,12.21-4.349,16.321l-14.402,1.526
					c-0.097-1.814,0.438-6.287,0.53-6.721c2.1-9.975,3.758-20.316,7.562-29.773c1.642-4.082,6.898-14.925,20.351-15.461l0.509,0.632
					c4.958,8.218,14.254,5.726,14.254,5.726c7.375-1.797,6.23-8.186,6.23-8.186c2.461,0.227,7.814,0,13.645,2.915
					c2.992,1.496,5.157,4.359,6.995,7.154c6.683,10.165,6.471,28.547,8.346,40.567c3.346,2.606,12.387,7.933,18.393,11.239
					L189.56,289.525z"/>
				<g>
					<path style="fill:#3C3C3B;" d="M119.714,264.47c-0.29-2.229-0.427-4.465-0.528-6.702c-0.04-1.119-0.078-2.237-0.077-3.358
						c-0.004-1.12,0-2.24,0.062-3.363c0.152,1.114,0.247,2.231,0.333,3.348c0.092,1.117,0.144,2.235,0.195,3.353
						C119.779,259.986,119.823,262.225,119.714,264.47z"/>
				</g>
				<path style="fill:#F7C5B4;" d="M145.337,212.993l0.756,7.398l3.936,0.122c0,0,2.654,8.473-9.67,8.905
					c0,0-7.609,0.385-11.4-7.078l4.942-0.766V213.3L145.337,212.993z"/>
				<path id="XMLID_4045_" style="fill:#F7C5B4;" d="M121.518,182.191c-0.723,7.327,1.504,18.126,3.536,23.733
					c0.826,2.279,1.706,4.633,3.368,6.398c8.208,8.719,17.85,4.93,20.92,2.519c2.409-1.893,4.246-4.367,5.184-7.283
					c2.394-7.443,2.957-15.467,1.624-23.171c0,0-1.934-17.562-20.137-14.764C136.014,169.624,122.726,169.956,121.518,182.191z"/>
				<g>
					<path id="XMLID_4040_" style="fill:#3C3C3B;" d="M131.491,199.792c0.111,0.609,0.696,1.013,1.305,0.901
						c0.609-0.112,1.013-0.696,0.901-1.305c-0.111-0.609-0.696-1.013-1.305-0.901C131.783,198.599,131.379,199.184,131.491,199.792z
						"/>
					<path id="XMLID_4038_" style="fill:#3C3C3B;" d="M149.246,199.417c0.112,0.609,0.696,1.013,1.305,0.902
						c0.609-0.112,1.013-0.696,0.901-1.305c-0.111-0.609-0.696-1.013-1.305-0.901C149.539,198.224,149.135,198.808,149.246,199.417z
						"/>
					<g id="XMLID_4033_">
						<path style="fill:#3C3C3B;" d="M134.595,196.831c-1.083-0.169-2.15-0.222-3.199-0.045c-1.055,0.139-2.054,0.504-3.041,0.968
							l-0.005,0.002c-0.165,0.078-0.361,0.007-0.439-0.158c-0.063-0.133-0.028-0.287,0.075-0.382
							c0.887-0.822,2.069-1.279,3.261-1.463c1.198-0.147,2.455-0.026,3.533,0.51c0.149,0.074,0.21,0.256,0.136,0.405
							C134.857,196.789,134.722,196.851,134.595,196.831z"/>
					</g>
					<g id="XMLID_4023_">
						<path style="fill:#3C3C3B;" d="M146.587,195.82c0.969-0.715,2.186-1.051,3.391-1.115c1.206-0.025,2.449,0.22,3.465,0.876
							c0.153,0.099,0.197,0.303,0.098,0.456c-0.08,0.124-0.228,0.176-0.363,0.14l-0.006-0.001c-1.052-0.286-2.099-0.473-3.162-0.426
							c-1.064,0.007-2.106,0.244-3.143,0.599c-0.157,0.056-0.33-0.026-0.386-0.183C146.436,196.038,146.485,195.898,146.587,195.82z
							"/>
					</g>
					<g>
						<path style="fill:#3C3C3B;" d="M142.999,205.668c-1.188,0.767-2.963,0.487-3.847-0.63c-0.054-0.068-0.042-0.167,0.026-0.22
							c0.058-0.046,0.141-0.042,0.197,0.003c0.978,0.781,2.308,1.018,3.496,0.593c0.074-0.028,0.157,0.01,0.185,0.084
							C143.08,205.56,143.054,205.632,142.999,205.668z"/>
					</g>
				</g>
				<path id="XMLID_4018_" style="fill:#E89B8D;" d="M142.545,196.143c0.482,1.983,0.277,4.029,0.416,6.044
					c0.007,0.099,0.012,0.204-0.064,0.295c-0.16,0.191-0.573,0.218-0.913,0.219c-0.514,0.002-1.027,0.004-1.541,0.005
					c-0.274,0.001-0.589-0.011-0.74-0.147c-0.09-0.081-0.097-0.189-0.1-0.29c-0.055-1.957,0.185-3.927,0.716-5.875
					c0.052-0.192,0.113-0.393,0.3-0.554c0.27-0.233,0.799-0.337,1.214-0.239C141.833,195.601,142.442,195.721,142.545,196.143z"/>
				<path style="fill:#3C3C3B;" d="M145.723,216.767c0,0-5.009,2.599-11.822-0.388v2.842
					C133.902,219.222,141.948,220.967,145.723,216.767z"/>
				<path style="fill:#656DAE;" d="M100.637,271.342l-0.129,1.442c-0.492,7.588,7.002,11.764,7.002,11.764
					c6.967,3.081,18.249,5.729,33.691,8.314l3.618-10.691c0,0-27.693-9.72-31.409-11.013l-12.261,0.18L100.637,271.342z"/>
				<path style="fill:#F7C5B4;" d="M196.808,282.859c1.91-0.534,4.596,0.366,6.169,1.573c1.74,1.336,2.295,2.826,2.417,4.416
					c0.068,0.883-0.191,2.051-1.075,2.096c-0.697,0.035-1.178-0.699-1.362-1.372c-0.184-0.673-0.257-1.435-0.758-1.92
					c0.729,0.942,1.256,2.039,1.536,3.196c0.105,0.434,0.135,0.982-0.235,1.233c-0.365,0.247-0.887,0.007-1.133-0.359
					c-0.246-0.365-0.179-1.02-0.619-1.047c-0.495-0.031-1.006-0.727-1.066-1.735c0.277,0.789,1,1.325,1.459,2.023
					c0.459,0.698,0.517,1.847-0.248,2.184c-0.676,0.298-1.294-0.388-1.82-0.906c-0.631-0.622-0.738-1.369-1.422-1.649
					c0.682,0.432,1.11,1.145,1.617,1.764c0.28,0.342,0.279,0.998-0.129,1.168c-0.162,0.068-0.349,0.033-0.513-0.028
					c-1.307-0.488-2.077-3.031-3.091-3.011c-1.704,0.122,0.62,1.773,0.55,2.613c-0.046,0.556-0.629,0.952-1.188,0.96
					c-0.558,0.008-1.078-0.277-1.53-0.605c-0.746-0.543-3.644-3.758-4.136-4.539L196.808,282.859z"/>
				<g>
					<path style="fill:#3C3C3B;" d="M165.131,263.675c-0.29-2.23-0.428-4.465-0.528-6.702c-0.04-1.119-0.078-2.238-0.077-3.358
						c-0.004-1.12,0-2.241,0.062-3.363c0.152,1.115,0.247,2.231,0.333,3.348c0.092,1.117,0.144,2.235,0.195,3.354
						C165.196,259.191,165.24,261.43,165.131,263.675z"/>
				</g>
				<path style="fill:#3C3C3B;" d="M124.056,187.23c0.446,4.107,0.087,8.299-1.052,12.27c-1.929-3.213-3.518-6.677-4.212-10.359
					c-0.694-3.683-1.109-13.979,3.586-17.873c1.957-1.623,4.522-2.573,7.038-2.204c1.84-1.812,4.256-3.029,6.807-3.43
					c1.683-0.265,3.654-0.066,4.691,1.286c1.683-1.311,3.816-2.212,5.928-1.91c2.112,0.302,4.08,2.073,4.104,4.206
					c2.796-1.234,6.314,0.298,7.824,2.955c1.509,2.657,1.231,6.072-0.148,8.799c-0.29,0.573-0.637,1.138-1.151,1.524
					c-0.605,0.455-1.379,0.615-2.131,0.709c-4.527,0.566-9.271-0.923-12.663-3.975c-0.005,2.42-2.349,4.382-4.76,4.584
					c-2.411,0.202-4.751-0.989-6.582-2.572c0.092,0.829-0.713,1.54-1.54,1.657c-0.826,0.117-1.647-0.192-2.424-0.496
					c0.4,1.019,0.07,2.239-0.68,3.037C125.943,186.235,125.149,187.186,124.056,187.23z"/>
				<g id="XMLID_4001_">
					<path id="XMLID_4017_" style="fill:#F7C5B4;" d="M124.058,202.609c-0.493,0.733-1.478,1.097-2.331,0.863
						c-0.666-0.182-1.2-0.674-1.651-1.195c-1.19-1.374-2.011-3.208-1.671-4.992c0.084-0.443,0.248-0.889,0.574-1.202
						c0.541-0.52,1.419-0.55,2.115-0.266c0.696,0.285,1.945,1.493,2.631,2.154L124.058,202.609z"/>
					<g id="XMLID_4002_">
						<g id="XMLID_4014_">
							<path style="fill:#3C3C3B;" d="M120.048,197.411c0.815,0.196,1.554,0.643,2.194,1.183c0.609,0.574,1.136,1.262,1.418,2.052
								c0.021,0.06-0.01,0.124-0.069,0.146c-0.054,0.019-0.113-0.005-0.139-0.054c-0.38-0.704-0.846-1.358-1.452-1.875
								c-0.575-0.551-1.275-0.949-2.016-1.254c-0.053-0.021-0.079-0.083-0.057-0.136
								C119.946,197.425,119.998,197.399,120.048,197.411z"/>
						</g>
						<g id="XMLID_4012_">
							<path style="fill:#3C3C3B;" d="M122.424,199.061c-0.247,0.471-0.454,0.959-0.521,1.481c-0.113,0.514-0.084,1.042-0.015,1.567
								c0.009,0.063-0.035,0.12-0.097,0.129c-0.054,0.008-0.104-0.024-0.123-0.073c-0.2-0.534-0.201-1.125-0.121-1.687
								c0.125-0.554,0.333-1.104,0.706-1.535c0.038-0.043,0.104-0.048,0.148-0.011C122.437,198.965,122.446,199.019,122.424,199.061
								z"/>
						</g>
					</g>
				</g>
				<path style="fill:#F7C5B4;" d="M141.358,292.403c0.512,0.54,1.309,1.28,1.821,1.821c0.355,0.375,0.746,0.77,1.254,0.863
					c0.508,0.094,1.127-0.293,1.056-0.804c-0.063-0.455-0.616-0.794-0.516-1.243c0.065-0.293,0.404-0.456,0.703-0.428
					c0.299,0.027,0.564,0.195,0.816,0.358c0.804,0.52,1.609,1.039,2.413,1.559c0.279,0.18,0.618,0.367,0.924,0.24
					c0.292-0.121,0.411-0.495,0.338-0.802c-0.073-0.307-0.291-0.558-0.515-0.781c-0.798-0.792-1.778-1.399-2.843-1.761
					c1.039,0.621,2.077,1.241,3.116,1.862c0.321,0.192,0.713,0.389,1.051,0.229c0.321-0.152,0.43-0.579,0.332-0.92
					c-0.098-0.341-0.352-0.612-0.604-0.861c-0.733-0.724-1.529-1.384-2.376-1.97c0.678,0.538,1.355,1.075,2.033,1.613
					c0.263,0.209,0.58,0.43,0.905,0.347c0.595-0.152,0.51-1.036,0.213-1.573c-0.633-1.148-1.615-2.101-2.782-2.699
					c0.595,0.466,1.191,0.933,1.786,1.399c0.229,0.18,0.478,0.367,0.769,0.383c0.511,0.028,0.906-0.521,0.895-1.033
					c-0.012-0.512-0.312-0.969-0.631-1.369c-1.741-2.183-4.422-3.589-7.208-3.781L141.358,292.403z"/>
			</g>
			<rect x="62.143" y="305.135" style="fill:#FFB162;" width="6.915" height="140.315"/>
			<g>
				<polygon style="fill:#BFDDE9;" points="148.442,296.948 152.564,253.51 224.312,253.51 218.501,299.434 148.256,299.434 
					148.206,299.434 142.964,299.434 142.964,296.948 				"/>
				<path style="fill:#BFDDE9;" d="M218.501,299.434h-70.245h-0.05h-5.241v-2.486h5.477l2.839-29.919
					C151.281,267.028,153.576,297.405,218.501,299.434"/>
			</g>
		</g>
		<g>
			<g id="XMLID_3997_">
				<path id="XMLID_4000_" style="fill:#62B5C3;" d="M271.878,265.165c0,0-21.646,4.545-40.444,0l14.665-31.006h11.162
					L271.878,265.165z"/>
				
					<line id="XMLID_3999_" style="fill:none;stroke:#3C3C3B;stroke-width:1.4656;stroke-miterlimit:10;" x1="251.941" y1="266.901" x2="251.941" y2="293.19"/>
				<rect id="XMLID_3998_" x="239.979" y="290.473" style="fill:#656DAE;" width="23.355" height="2.717"/>
			</g>
			<g>
				<g>
					<path style="fill:#9BD0D9;" d="M256.2,238.439c0.757,2,1.498,4.005,2.212,6.019l2.113,6.053l2.028,6.082
						c0.663,2.032,1.303,4.072,1.919,6.119c0.05,0.165-0.044,0.339-0.208,0.388c-0.157,0.047-0.323-0.037-0.381-0.188
						c-0.758-2-1.493-4.007-2.204-6.022l-2.096-6.059l-2.01-6.088c-0.661-2.033-1.294-4.075-1.912-6.122
						c-0.046-0.151,0.04-0.311,0.191-0.356C255.995,238.223,256.147,238.301,256.2,238.439z"/>
				</g>
				<g>
					<path style="fill:#9BD0D9;" d="M251.611,238.512c0.14,2.019,0.263,4.038,0.357,6.058l0.253,6.061l0.163,6.064
						c0.041,2.022,0.057,4.044,0.048,6.068c-0.001,0.172-0.141,0.311-0.313,0.31c-0.164-0.001-0.298-0.129-0.31-0.29
						c-0.141-2.019-0.258-4.038-0.349-6.058l-0.235-6.062l-0.145-6.064c-0.038-2.022-0.048-4.045-0.04-6.068
						c0.001-0.158,0.129-0.285,0.286-0.285C251.477,238.247,251.6,238.365,251.611,238.512z"/>
				</g>
				<g>
					<path style="fill:#9BD0D9;" d="M247.551,238.5c-0.748,2.039-1.512,4.07-2.302,6.091l-2.398,6.052l-2.482,6.018
						c-0.84,2.001-1.703,3.992-2.588,5.975c-0.07,0.157-0.254,0.228-0.412,0.158c-0.15-0.067-0.221-0.24-0.165-0.392
						c0.747-2.039,1.517-4.068,2.309-6.088l2.415-6.045l2.499-6.011c0.842-2,1.711-3.989,2.596-5.972
						c0.064-0.144,0.233-0.208,0.377-0.145C247.537,238.203,247.602,238.361,247.551,238.5z"/>
				</g>
			</g>
		</g>
		<g id="XMLID_3994_">
			<path id="XMLID_3996_" style="fill:#FFDC75;" d="M88.798,202.864c0,3.79-3.073,6.863-6.863,6.863s-6.863-3.073-6.863-6.863
				s3.073-6.863,6.863-6.863S88.798,199.073,88.798,202.864z"/>
			<polygon style="fill:#FFB162;" points="80.913,142.766 80.913,174.955 82.955,174.955 82.955,141.206 			"/>
			<path id="XMLID_3995_" style="fill:#FFB162;" d="M93.583,205.566H70.286v-29.21c0-6.164,4.997-11.162,11.162-11.162h0.974
				c6.164,0,11.162,4.997,11.162,11.162V205.566z"/>
		</g>
		<g id="XMLID_2838_">
			<g id="XMLID_2840_">
				<rect id="XMLID_3805_" x="66.266" y="287.324" style="fill:#656DAE;" width="44.374" height="6.411"/>
				<rect id="XMLID_3804_" x="65.6" y="272.753" style="fill:#91CCA2;" width="44.374" height="6.411"/>
				<rect id="XMLID_3802_" x="67.708" y="279.164" style="fill:#FFDC75;" width="44.374" height="8.16"/>
				
					<line id="XMLID_3800_" style="fill:none;stroke:#3C3C3B;stroke-width:0.3508;stroke-miterlimit:10;" x1="71.988" y1="287.324" x2="71.988" y2="293.735"/>
				
					<line id="XMLID_3797_" style="fill:none;stroke:#3C3C3B;stroke-width:0.3508;stroke-miterlimit:10;" x1="74.075" y1="287.324" x2="74.075" y2="293.735"/>
				
					<line id="XMLID_3796_" style="fill:none;stroke:#3C3C3B;stroke-width:0.3508;stroke-miterlimit:10;" x1="103.201" y1="287.324" x2="103.201" y2="293.735"/>
				
					<line id="XMLID_3795_" style="fill:none;stroke:#3C3C3B;stroke-width:0.3508;stroke-miterlimit:10;" x1="105.289" y1="287.324" x2="105.289" y2="293.735"/>
				
					<line id="XMLID_3794_" style="fill:none;stroke:#3C3C3B;stroke-width:0.3958;stroke-miterlimit:10;" x1="106.969" y1="279.164" x2="106.969" y2="287.324"/>
				
					<line id="XMLID_3793_" style="fill:none;stroke:#3C3C3B;stroke-width:0.3958;stroke-miterlimit:10;" x1="109.057" y1="279.164" x2="109.057" y2="287.324"/>
				
					<line id="XMLID_3792_" style="fill:none;stroke:#3C3C3B;stroke-width:0.3958;stroke-miterlimit:10;" x1="75.153" y1="279.164" x2="75.153" y2="287.324"/>
				
					<line id="XMLID_3791_" style="fill:none;stroke:#3C3C3B;stroke-width:0.3958;stroke-miterlimit:10;" x1="77.241" y1="279.164" x2="77.241" y2="287.324"/>
				
					<line id="XMLID_3789_" style="fill:none;stroke:#3C3C3B;stroke-width:0.3508;stroke-miterlimit:10;" x1="68.655" y1="272.753" x2="68.655" y2="279.164"/>
				
					<line id="XMLID_3788_" style="fill:none;stroke:#3C3C3B;stroke-width:0.3508;stroke-miterlimit:10;" x1="70.743" y1="272.753" x2="70.743" y2="279.164"/>
				
					<line id="XMLID_3786_" style="fill:none;stroke:#3C3C3B;stroke-width:0.3508;stroke-miterlimit:10;" x1="103.201" y1="272.753" x2="103.201" y2="279.164"/>
				
					<line id="XMLID_3687_" style="fill:none;stroke:#3C3C3B;stroke-width:0.3508;stroke-miterlimit:10;" x1="105.289" y1="272.753" x2="105.289" y2="279.164"/>
			</g>
		</g>
	</g>
</g>
</svg>
